<svg xmlns="http://www.w3.org/2000/svg" width="124" height="120" fill="none" viewBox="0 0 124 120"><path fill="#05070a" fill-opacity=".98" d="M119.339 64.365A4.66 4.66 0 0 0 124 59.706a4.66 4.66 0 0 0-4.661-4.658 4.659 4.659 0 1 0 0 9.317"/><path fill="#05070a" fill-opacity=".974" d="M118.981 70.743a4.643 4.643 0 1 0 0-9.285 4.644 4.644 0 0 0-4.645 4.643 4.644 4.644 0 0 0 4.645 4.642"/><path fill="#05070a" fill-opacity=".957" d="M117.907 77.012a4.597 4.597 0 0 0 4.598-4.596 4.597 4.597 0 0 0-4.598-4.596 4.596 4.596 0 1 0 0 9.192"/><path fill="#05070a" fill-opacity=".928" d="M116.134 83.09a4.52 4.52 0 1 0-4.521-4.519 4.52 4.52 0 0 0 4.521 4.52"/><path fill="#05070a" fill-opacity=".89" d="M113.68 88.903a4.414 4.414 0 1 0-4.416-4.413 4.415 4.415 0 0 0 4.416 4.413"/><path fill="#05070a" fill-opacity=".843" d="M110.581 94.378a4.285 4.285 0 1 0 .002-8.57 4.285 4.285 0 0 0-.002 8.57"/><path fill="#05070a" fill-opacity=".788" d="M106.873 99.45a4.133 4.133 0 1 0-4.134-4.132 4.133 4.133 0 0 0 4.134 4.132"/><path fill="#05070a" fill-opacity=".728" d="M102.601 104.054a3.961 3.961 0 1 0 .002-7.922 3.961 3.961 0 0 0-.002 7.922"/><path fill="#05070a" fill-opacity=".664" d="M97.823 108.137a3.774 3.774 0 1 0 0-7.547 3.774 3.774 0 1 0 0 7.547"/><path fill="#05070a" fill-opacity=".598" d="M92.597 111.647a3.577 3.577 0 1 0 0-7.154 3.578 3.578 0 1 0 0 7.154"/><path fill="#05070a" fill-opacity=".531" d="M86.99 114.541a3.375 3.375 0 1 0 0-6.748 3.375 3.375 0 1 0 0 6.748"/><path fill="#05070a" fill-opacity=".466" d="M81.07 116.79a3.171 3.171 0 1 0 0-6.342 3.171 3.171 0 0 0 0 6.342"/><path fill="#05070a" fill-opacity=".403" d="M74.911 118.361a2.97 2.97 0 1 0-2.97-2.969 2.97 2.97 0 0 0 2.97 2.969"/><path fill="#05070a" fill-opacity=".344" d="M68.593 119.238a2.773 2.773 0 1 0-2.774-2.772 2.773 2.773 0 0 0 2.774 2.772"/><path fill="#05070a" fill-opacity=".29" d="M62.196 119.413a2.59 2.59 0 1 0 0-5.178 2.59 2.59 0 0 0 0 5.178"/><path fill="#05070a" fill-opacity=".253" d="M55.67 120a2.417 2.417 0 1 0 .002-4.834A2.417 2.417 0 0 0 55.67 120"/><path fill="#05070a" fill-opacity=".218" d="M49.22 118.785a2.261 2.261 0 1 0 .001-4.522 2.261 2.261 0 0 0 0 4.522"/><path fill="#05070a" fill-opacity=".186" d="M42.977 116.721a2.122 2.122 0 1 0 0-4.243 2.122 2.122 0 0 0 0 4.243"/><path fill="#05070a" fill-opacity=".082" d="M37.075 113.612a1.765 1.765 0 1 0 0-3.53 1.765 1.765 0 0 0 0 3.53"/><path fill="#05070a" fill-opacity=".068" d="M31.622 109.998a1.657 1.657 0 1 0 .001-3.314 1.657 1.657 0 0 0-.001 3.314"/><path fill="#05070a" fill-opacity=".057" d="M26.698 105.763a1.564 1.564 0 1 0 0-3.128 1.564 1.564 0 0 0 0 3.128"/><path fill="#05070a" fill-opacity=".049" d="M22.337 101.03a1.483 1.483 0 1 0 0-2.966 1.483 1.483 0 0 0 0 2.966"/><path fill="#05070a" fill-opacity=".042" d="M18.531 95.93a1.418 1.418 0 1 0 0-2.837 1.418 1.418 0 0 0 0 2.837"/><path fill="#05070a" fill-opacity=".037" d="M15.249 90.554a1.361 1.361 0 1 0 0-2.723 1.361 1.361 0 0 0 0 2.723"/><path fill="#05070a" fill-opacity=".034" d="M12.438 84.972a1.315 1.315 0 1 0 0-2.63 1.315 1.315 0 0 0 0 2.63"/><path fill="#05070a" fill-opacity=".032" d="M10.065 79.214a1.274 1.274 0 1 0 0-2.55 1.274 1.274 0 0 0 0 2.55"/><path fill="#05070a" fill-opacity=".031" d="M8.12 73.283a1.24 1.24 0 1 0 0-2.48 1.24 1.24 0 0 0 0 2.48M6.638 67.17a1.207 1.207 0 1 0 0-2.415 1.207 1.207 0 0 0 0 2.415m-.946-6.289a1.175 1.175 0 1 0 0-2.35 1.175 1.175 0 0 0 0 2.35M5.38 54.45a1.143 1.143 0 1 0 0-2.285 1.143 1.143 0 0 0 0 2.285m.432-6.493a1.114 1.114 0 1 0 0-2.229 1.114 1.114 0 0 0 0 2.229"/><path fill="#05070a" fill-opacity=".032" d="M7.078 41.516a1.088 1.088 0 1 0 0-2.176 1.088 1.088 0 0 0 0 2.176"/><path fill="#05070a" fill-opacity=".034" d="M9.228 35.275a1.066 1.066 0 1 0 0-2.131 1.066 1.066 0 0 0 0 2.131"/><path fill="#05070a" fill-opacity=".037" d="M12.262 29.395a1.051 1.051 0 1 0 0-2.102 1.051 1.051 0 0 0 0 2.102"/><path fill="#05070a" fill-opacity=".042" d="M16.118 24.026a1.047 1.047 0 1 0 0-2.095 1.047 1.047 0 0 0 0 2.095"/><path fill="#05070a" fill-opacity=".049" d="M20.695 19.276a1.051 1.051 0 1 0 0-2.103 1.051 1.051 0 0 0 0 2.103"/><path fill="#05070a" fill-opacity=".057" d="M25.853 15.221a1.068 1.068 0 1 0 0-2.135 1.068 1.068 0 0 0 0 2.135"/><path fill="#05070a" fill-opacity=".068" d="M31.445 11.885a1.094 1.094 0 1 0 0-2.188 1.094 1.094 0 0 0 0 2.188"/><path fill="#05070a" fill-opacity=".082" d="M37.34 9.252a1.135 1.135 0 1 0 0-2.269 1.135 1.135 0 0 0 0 2.27"/><path fill="#05070a" fill-opacity=".186" d="M43.427 8.215a2.121 2.121 0 1 0 .001-4.242 2.121 2.121 0 0 0 0 4.242"/><path fill="#05070a" fill-opacity=".218" d="M49.63 6.94a2.26 2.26 0 1 0 0-4.523 2.26 2.26 0 0 0 0 4.522"/><path fill="#05070a" fill-opacity=".253" d="M55.898 6.249a2.417 2.417 0 1 0 0-4.834 2.417 2.417 0 0 0 0 4.834"/><path fill="#05070a" fill-opacity=".29" d="M62.196 5.177a2.59 2.59 0 1 0 0-5.178 2.59 2.59 0 0 0 0 5.178"/><path fill="#05070a" fill-opacity=".344" d="M68.593 5.72a2.773 2.773 0 1 0 .001-5.547 2.773 2.773 0 0 0-.001 5.547"/><path fill="#05070a" fill-opacity=".403" d="M74.911 6.99a2.97 2.97 0 1 0 .001-5.94 2.97 2.97 0 0 0 0 5.94"/><path fill="#05070a" fill-opacity=".466" d="M81.07 8.963a3.17 3.17 0 1 0 0-6.341 3.17 3.17 0 0 0 0 6.34"/><path fill="#05070a" fill-opacity=".531" d="M86.99 11.62a3.375 3.375 0 1 0-3.376-3.374 3.375 3.375 0 0 0 3.376 3.374"/><path fill="#05070a" fill-opacity=".598" d="M92.597 14.92a3.578 3.578 0 1 0-3.578-3.578 3.58 3.58 0 0 0 3.578 3.577"/><path fill="#05070a" fill-opacity=".664" d="M97.823 18.823a3.774 3.774 0 1 0-3.775-3.774 3.774 3.774 0 0 0 3.775 3.774"/><path fill="#05070a" fill-opacity=".728" d="M102.601 23.279a3.96 3.96 0 1 0 .002-7.922 3.96 3.96 0 0 0-.002 7.922"/><path fill="#05070a" fill-opacity=".788" d="M106.873 28.227a4.133 4.133 0 1 0-4.134-4.132 4.133 4.133 0 0 0 4.134 4.132"/><path fill="#05070a" fill-opacity=".843" d="M110.581 33.602a4.285 4.285 0 1 0 .002-8.57 4.285 4.285 0 0 0-.002 8.57"/><path fill="#05070a" fill-opacity=".89" d="M113.68 39.336a4.414 4.414 0 1 0 0-8.827 4.415 4.415 0 1 0 0 8.827"/><path fill="#05070a" fill-opacity=".928" d="M116.134 45.36a4.52 4.52 0 1 0-4.521-4.519 4.52 4.52 0 0 0 4.521 4.519"/><path fill="#05070a" fill-opacity=".957" d="M117.907 51.592a4.597 4.597 0 0 0 4.598-4.595 4.597 4.597 0 0 0-4.598-4.596 4.597 4.597 0 1 0 0 9.191"/><path fill="#05070a" fill-opacity=".974" d="M118.981 57.954a4.643 4.643 0 1 0 0-9.284 4.644 4.644 0 0 0-4.645 4.642 4.644 4.644 0 0 0 4.645 4.642"/><path fill="#05070a" fill-opacity=".979" d="M109.959 65.78a3.685 3.685 0 1 0-3.686-3.684 3.686 3.686 0 0 0 3.686 3.685"/><path fill="#05070a" fill-opacity=".965" d="M109.238 71.96a3.654 3.654 0 1 0 0-7.307 3.655 3.655 0 1 0 0 7.307"/><path fill="#05070a" fill-opacity=".936" d="M107.712 77.962a3.592 3.592 0 1 0 .001-7.185 3.592 3.592 0 0 0-.001 7.185"/><path fill="#05070a" fill-opacity=".892" d="M105.408 83.68a3.497 3.497 0 1 0-3.498-3.496 3.497 3.497 0 0 0 3.498 3.496"/><path fill="#05070a" fill-opacity=".837" d="M102.364 89.02a3.375 3.375 0 1 0-3.376-3.374 3.375 3.375 0 0 0 3.376 3.375"/><path fill="#05070a" fill-opacity=".772" d="M98.634 93.894a3.23 3.23 0 1 0-3.23-3.229 3.23 3.23 0 0 0 3.23 3.229"/><path fill="#05070a" fill-opacity=".7" d="M94.28 98.216a3.063 3.063 0 1 0 0-6.126 3.063 3.063 0 0 0 0 6.126"/><path fill="#05070a" fill-opacity=".623" d="M89.375 101.919a2.883 2.883 0 1 0 0-5.767 2.883 2.883 0 0 0 0 5.767"/><path fill="#05070a" fill-opacity=".546" d="M84.007 104.941a2.697 2.697 0 1 0 .002-5.393 2.697 2.697 0 0 0-.002 5.393"/><path fill="#05070a" fill-opacity=".469" d="M78.265 107.234a2.506 2.506 0 1 0 0-5.013 2.506 2.506 0 0 0 0 5.013"/><path fill="#05070a" fill-opacity=".396" d="M72.248 108.757a2.318 2.318 0 1 0 0-4.636 2.318 2.318 0 0 0 0 4.636"/><path fill="#05070a" fill-opacity=".328" d="M66.06 109.488a2.138 2.138 0 1 0 0-4.275 2.138 2.138 0 0 0 0 4.275"/><path fill="#05070a" fill-opacity=".273" d="M59.804 109.415a1.968 1.968 0 1 0 0-3.935 1.968 1.968 0 0 0 0 3.935"/><path fill="#05070a" fill-opacity=".231" d="M53.383 109.684a1.815 1.815 0 1 0 .002-3.63 1.815 1.815 0 0 0-.002 3.63"/><path fill="#05070a" fill-opacity=".193" d="M47.123 108.127a1.68 1.68 0 1 0 0-3.36 1.68 1.68 0 0 0 0 3.36"/><path fill="#05070a" fill-opacity=".082" d="M41.18 105.396a1.381 1.381 0 1 0 .001-2.763 1.381 1.381 0 0 0-.001 2.763"/><path fill="#05070a" fill-opacity=".067" d="M35.743 101.911a1.28 1.28 0 1 0 0-2.56 1.28 1.28 0 0 0 0 2.56"/><path fill="#05070a" fill-opacity=".055" d="M30.967 97.625a1.197 1.197 0 1 0 0-2.395 1.197 1.197 0 0 0 0 2.395"/><path fill="#05070a" fill-opacity=".045" d="M26.933 92.721a1.128 1.128 0 1 0 0-2.257 1.128 1.128 0 0 0 0 2.257"/><path fill="#05070a" fill-opacity=".039" d="M23.638 87.4a1.072 1.072 0 1 0 0-2.143 1.072 1.072 0 0 0 0 2.143"/><path fill="#05070a" fill-opacity=".035" d="M21.012 81.83a1.027 1.027 0 1 0 0-2.054 1.027 1.027 0 0 0 0 2.054"/><path fill="#05070a" fill-opacity=".032" d="M18.955 76.117a.99.99 0 1 0 0-1.982.99.99 0 0 0 0 1.981"/><path fill="#05070a" fill-opacity=".031" d="M17.378 70.297a.958.958 0 1 0 0-1.916.958.958 0 0 0 0 1.916m-1.126-5.94a.928.928 0 1 0 0-1.856.928.928 0 0 0 0 1.856m-.625-6.081a.9.9 0 1 0 0-1.799.9.9 0 0 0 0 1.8m-.006-6.215a.871.871 0 1 0 0-1.742.871.871 0 0 0 0 1.742"/><path fill="#05070a" fill-opacity=".032" d="M16.391 45.796a.847.847 0 1 0 0-1.694.847.847 0 0 0 0 1.694"/><path fill="#05070a" fill-opacity=".034" d="M18.077 39.626a.827.827 0 1 0 0-1.653.827.827 0 0 0 0 1.653"/><path fill="#05070a" fill-opacity=".038" d="M20.762 33.764a.814.814 0 1 0 0-1.628.814.814 0 0 0 0 1.628"/><path fill="#05070a" fill-opacity=".044" d="M24.436 28.437a.812.812 0 1 0 0-1.624.812.812 0 0 0 0 1.624"/><path fill="#05070a" fill-opacity=".052" d="M28.99 23.84a.82.82 0 1 0 0-1.641.82.82 0 0 0 0 1.64"/><path fill="#05070a" fill-opacity=".064" d="M34.244 20.103a.843.843 0 1 0 0-1.686.843.843 0 0 0 0 1.686"/><path fill="#05070a" fill-opacity=".078" d="M39.987 17.269a.877.877 0 1 0 0-1.754.877.877 0 0 0 0 1.754"/><path fill="#05070a" fill-opacity=".184" d="M46.019 16.034a1.651 1.651 0 1 0 0-3.303 1.651 1.651 0 0 0 0 3.303"/><path fill="#05070a" fill-opacity=".222" d="M52.181 14.938a1.78 1.78 0 1 0 .001-3.562 1.78 1.78 0 0 0 0 3.562"/><path fill="#05070a" fill-opacity=".263" d="M58.331 13.992a1.93 1.93 0 1 0 .001-3.862 1.93 1.93 0 0 0 0 3.862"/><path fill="#05070a" fill-opacity=".313" d="M64.587 14.059a2.095 2.095 0 1 0 0-4.19 2.095 2.095 0 0 0 0 4.19"/><path fill="#05070a" fill-opacity=".379" d="M70.8 14.958a2.273 2.273 0 1 0 0-4.546 2.273 2.273 0 0 0 0 4.546"/><path fill="#05070a" fill-opacity=".451" d="M76.867 16.672a2.461 2.461 0 1 0 0-4.923 2.461 2.461 0 0 0 0 4.923"/><path fill="#05070a" fill-opacity=".527" d="M82.682 19.165a2.652 2.652 0 1 0 .001-5.304 2.652 2.652 0 0 0 0 5.304"/><path fill="#05070a" fill-opacity=".605" d="M88.147 22.395a2.84 2.84 0 1 0 .002-5.68 2.84 2.84 0 0 0-.002 5.68"/><path fill="#05070a" fill-opacity=".682" d="M93.169 26.307a3.023 3.023 0 1 0 .001-6.046 3.023 3.023 0 0 0-.001 6.046"/><path fill="#05070a" fill-opacity=".755" d="M97.66 30.827a3.191 3.191 0 1 0 0-6.382 3.191 3.191 0 0 0 0 6.382"/><path fill="#05070a" fill-opacity=".822" d="M101.544 35.88a3.343 3.343 0 1 0 0-6.685 3.343 3.343 0 0 0 0 6.686"/><path fill="#05070a" fill-opacity=".88" d="M104.753 41.374a3.47 3.47 0 1 0-3.471-3.47 3.47 3.47 0 0 0 3.471 3.47"/><path fill="#05070a" fill-opacity=".926" d="M107.238 47.215a3.571 3.571 0 1 0 0-7.141 3.572 3.572 0 1 0 0 7.142"/><path fill="#05070a" fill-opacity=".959" d="M108.95 53.3a3.643 3.643 0 0 0 3.644-3.642 3.643 3.643 0 0 0-7.287 0 3.64 3.64 0 0 0 3.643 3.642"/><path fill="#05070a" fill-opacity=".977" d="M109.862 59.524a3.681 3.681 0 1 0 .001-7.363 3.681 3.681 0 0 0-.001 7.363"/><path fill="#05070a" fill-opacity=".975" d="M100.504 66.437a2.89 2.89 0 1 0 .001-5.779 2.89 2.89 0 0 0-.001 5.779"/><path fill="#05070a" fill-opacity=".95" d="M99.432 72.335a2.844 2.844 0 1 0 0-5.689 2.844 2.844 0 0 0 0 5.689"/><path fill="#05070a" fill-opacity=".903" d="M97.442 77.958a2.765 2.765 0 1 0 .001-5.53 2.765 2.765 0 0 0 0 5.53"/><path fill="#05070a" fill-opacity=".838" d="M94.583 83.165a2.652 2.652 0 1 0 .001-5.304 2.652 2.652 0 0 0 0 5.304"/><path fill="#05070a" fill-opacity=".759" d="M90.93 87.832a2.51 2.51 0 1 0 0-5.02 2.51 2.51 0 0 0 0 5.02"/><path fill="#05070a" fill-opacity=".671" d="M86.567 91.848a2.35 2.35 0 1 0 0-4.7 2.35 2.35 0 0 0 0 4.7"/><path fill="#05070a" fill-opacity=".578" d="M81.604 95.117a2.176 2.176 0 1 0 .001-4.351 2.176 2.176 0 0 0 0 4.351"/><path fill="#05070a" fill-opacity=".486" d="M76.163 97.562a1.993 1.993 0 1 0 .001-3.987 1.993 1.993 0 0 0 0 3.987"/><path fill="#05070a" fill-opacity=".397" d="M70.378 99.126a1.815 1.815 0 1 0 0-3.63 1.815 1.815 0 0 0 0 3.63"/><path fill="#05070a" fill-opacity=".317" d="M64.392 99.772a1.645 1.645 0 1 0 .001-3.29 1.645 1.645 0 0 0 0 3.29"/><path fill="#05070a" fill-opacity=".257" d="M58.352 99.484a1.487 1.487 0 1 0 0-2.974 1.487 1.487 0 0 0 0 2.974"/><path fill="#05070a" fill-opacity=".208" d="M52.118 99.37a1.351 1.351 0 1 0 0-2.702 1.351 1.351 0 0 0 0 2.703"/><path fill="#05070a" fill-opacity=".165" d="M46.13 97.47a1.234 1.234 0 1 0 .001-2.467 1.234 1.234 0 0 0 0 2.468"/><path fill="#05070a" fill-opacity=".067" d="M40.627 94.246a.997.997 0 1 0 0-1.993.997.997 0 0 0 0 1.993"/><path fill="#05070a" fill-opacity=".053" d="M35.91 90.082a.918.918 0 1 0 0-1.835.918.918 0 0 0 0 1.835"/><path fill="#05070a" fill-opacity=".042" d="M32.173 85.1a.857.857 0 1 0 0-1.714.857.857 0 0 0 0 1.713"/><path fill="#05070a" fill-opacity=".036" d="M29.45 79.62a.81.81 0 1 0 0-1.62.81.81 0 0 0 0 1.62"/><path fill="#05070a" fill-opacity=".033" d="M27.607 73.937a.772.772 0 1 0 0-1.544.772.772 0 0 0 0 1.544"/><path fill="#05070a" fill-opacity=".031" d="M26.436 68.221a.741.741 0 1 0 0-1.483.741.741 0 0 0 0 1.483m-.683-5.717a.715.715 0 1 0 0-1.43.715.715 0 0 0 0 1.43m-.241-5.787a.689.689 0 1 0 0-1.378.689.689 0 0 0 0 1.378"/><path fill="#05070a" fill-opacity=".032" d="M25.834 50.813a.662.662 0 1 0 0-1.325.662.662 0 0 0 0 1.325"/><path fill="#05070a" fill-opacity=".033" d="M26.949 44.864a.644.644 0 1 0 0-1.289.644.644 0 0 0 0 1.289"/><path fill="#05070a" fill-opacity=".037" d="M29.093 39.073a.632.632 0 1 0 0-1.264.632.632 0 0 0 0 1.264"/><path fill="#05070a" fill-opacity=".045" d="M32.394 33.768a.63.63 0 1 0 0-1.26.63.63 0 0 0 0 1.26"/><path fill="#05070a" fill-opacity=".056" d="M36.79 29.29a.642.642 0 1 0 .001-1.284.642.642 0 0 0 0 1.284"/><path fill="#05070a" fill-opacity=".072" d="M42.057 25.887a.669.669 0 1 0 0-1.337.669.669 0 0 0 0 1.337"/><path fill="#05070a" fill-opacity=".177" d="M47.875 24.2a1.264 1.264 0 1 0 0-2.528 1.264 1.264 0 0 0 0 2.528"/><path fill="#05070a" fill-opacity=".221" d="M53.932 23.117a1.386 1.386 0 1 0 0-2.772 1.386 1.386 0 0 0 0 2.771"/><path fill="#05070a" fill-opacity=".271" d="M59.999 22.815a1.53 1.53 0 1 0 0-3.06 1.53 1.53 0 0 0 0 3.06"/><path fill="#05070a" fill-opacity=".338" d="M66.04 23.104a1.69 1.69 0 1 0 0-3.379 1.69 1.69 0 0 0 0 3.38"/><path fill="#05070a" fill-opacity=".421" d="M71.985 24.35a1.864 1.864 0 1 0 0-3.728 1.864 1.864 0 0 0 0 3.728"/><path fill="#05070a" fill-opacity=".511" d="M77.69 26.52a2.044 2.044 0 1 0 0-4.089 2.044 2.044 0 0 0 0 4.088"/><path fill="#05070a" fill-opacity=".604" d="M83.013 29.557a2.224 2.224 0 1 0 0-4.449 2.224 2.224 0 0 0 0 4.45"/><path fill="#05070a" fill-opacity=".696" d="M87.823 33.38a2.395 2.395 0 1 0 .001-4.79 2.395 2.395 0 0 0 0 4.79"/><path fill="#05070a" fill-opacity=".782" d="M92.002 37.898a2.553 2.553 0 1 0 0-5.105 2.553 2.553 0 0 0 0 5.105"/><path fill="#05070a" fill-opacity=".857" d="M95.446 42.992a2.686 2.686 0 1 0 .001-5.372 2.686 2.686 0 0 0 0 5.372"/><path fill="#05070a" fill-opacity=".917" d="M98.075 48.534a2.79 2.79 0 1 0 0-5.58 2.79 2.79 0 0 0 0 5.58"/><path fill="#05070a" fill-opacity=".959" d="M99.817 54.388a2.86 2.86 0 1 0 0-5.722 2.86 2.86 0 0 0 0 5.722"/><path fill="#05070a" fill-opacity=".978" d="M100.634 60.405a2.895 2.895 0 1 0 .001-5.79 2.895 2.895 0 0 0-.001 5.79"/><path fill="#05070a" fill-opacity=".968" d="M91.404 66.55a2.133 2.133 0 1 0 0-4.266 2.133 2.133 0 0 0 0 4.266"/><path fill="#05070a" fill-opacity=".922" d="M89.922 72.096a2.075 2.075 0 1 0 .001-4.15 2.075 2.075 0 0 0 0 4.15"/><path fill="#05070a" fill-opacity=".846" d="M87.375 77.208a1.977 1.977 0 1 0 .001-3.954 1.977 1.977 0 0 0 0 3.954"/><path fill="#05070a" fill-opacity=".748" d="M83.862 81.69a1.848 1.848 0 1 0 0-3.695 1.848 1.848 0 0 0 0 3.696"/><path fill="#05070a" fill-opacity=".636" d="M79.515 85.377a1.696 1.696 0 1 0 0-3.392 1.696 1.696 0 0 0 0 3.392"/><path fill="#05070a" fill-opacity=".519" d="M74.504 88.13a1.532 1.532 0 1 0 0-3.064 1.532 1.532 0 0 0 0 3.063"/><path fill="#05070a" fill-opacity=".407" d="M69.018 89.845a1.365 1.365 0 1 0 0-2.73 1.365 1.365 0 0 0 0 2.73"/><path fill="#05070a" fill-opacity=".307" d="M63.272 90.467a1.21 1.21 0 1 0 0-2.419 1.21 1.21 0 0 0 0 2.419"/><path fill="#05070a" fill-opacity=".238" d="M57.415 90.388a1.07 1.07 0 1 0 0-2.14 1.07 1.07 0 0 0 0 2.14"/><path fill="#05070a" fill-opacity=".18" d="M51.484 89.42a.952.952 0 1 0 0-1.905.952.952 0 0 0 0 1.905"/><path fill="#05070a" fill-opacity=".069" d="M45.853 86.943a.754.754 0 1 0 0-1.508.754.754 0 0 0 0 1.508"/><path fill="#05070a" fill-opacity=".051" d="M41.07 83.096a.68.68 0 1 0 0-1.361.68.68 0 0 0 0 1.361"/><path fill="#05070a" fill-opacity=".04" d="M37.61 78.08a.628.628 0 1 0 0-1.257.628.628 0 0 0 0 1.256"/><path fill="#05070a" fill-opacity=".034" d="M35.595 72.459a.59.59 0 1 0 0-1.18.59.59 0 0 0 0 1.18"/><path fill="#05070a" fill-opacity=".031" d="M34.75 66.767a.56.56 0 1 0 0-1.118.56.56 0 0 0 0 1.118m-.144-5.525a.533.533 0 1 0 0-1.066.533.533 0 0 0 0 1.066m.236-5.439a.508.508 0 1 0 0-1.017.508.508 0 0 0 0 1.017"/><path fill="#05070a" fill-opacity=".032" d="M35.526 50.272a.488.488 0 1 0 0-.977.488.488 0 0 0 0 .977"/><path fill="#05070a" fill-opacity=".037" d="M37.052 44.68a.474.474 0 1 0 0-.949.474.474 0 0 0 0 .948"/><path fill="#05070a" fill-opacity=".046" d="M39.84 39.401a.472.472 0 1 0 0-.944.472.472 0 0 0 0 .944"/><path fill="#05070a" fill-opacity=".062" d="M44.015 35.028a.486.486 0 1 0 0-.972.486.486 0 0 0 0 .972"/><path fill="#05070a" fill-opacity=".162" d="M49.3 32.446a.916.916 0 1 0 0-1.832.916.916 0 0 0 0 1.832"/><path fill="#05070a" fill-opacity=".216" d="M55.166 31.077a1.023 1.023 0 1 0 0-2.047 1.023 1.023 0 0 0 0 2.046"/><path fill="#05070a" fill-opacity=".278" d="M61.12 31.31a1.155 1.155 0 1 0 0-2.31 1.155 1.155 0 0 0 0 2.31"/><path fill="#05070a" fill-opacity=".368" d="M66.909 31.818a1.307 1.307 0 1 0 0-2.614 1.307 1.307 0 0 0 0 2.614"/><path fill="#05070a" fill-opacity=".477" d="M72.516 33.46a1.469 1.469 0 1 0 0-2.937 1.469 1.469 0 0 0 0 2.938"/><path fill="#05070a" fill-opacity=".593" d="M77.728 36.173a1.635 1.635 0 1 0 0-3.27 1.635 1.635 0 0 0 0 3.27"/><path fill="#05070a" fill-opacity=".708" d="M82.342 39.843a1.793 1.793 0 1 0 0-3.586 1.793 1.793 0 0 0 0 3.586"/><path fill="#05070a" fill-opacity=".812" d="M86.182 44.327a1.933 1.933 0 1 0 0-3.865 1.933 1.933 0 0 0 0 3.865"/><path fill="#05070a" fill-opacity=".897" d="M89.1 49.445a2.042 2.042 0 1 0 0-4.084 2.042 2.042 0 0 0 0 4.084"/><path fill="#05070a" fill-opacity=".955" d="M90.982 55.003a2.117 2.117 0 1 0 .001-4.234 2.117 2.117 0 0 0 0 4.234"/><path fill="#05070a" fill-opacity=".979" d="M91.76 60.778a2.147 2.147 0 1 0 .001-4.295 2.147 2.147 0 0 0 0 4.295"/><path fill="#05070a" fill-opacity=".08" d="M42.317 77.88a.284.284 0 1 0 0-.566.284.284 0 0 0 0 .567"/><path fill="#05070a" fill-opacity=".098" d="M36.272 80.633a.36.36 0 1 0 0-.72.36.36 0 0 0 0 .72"/><path fill="#05070a" fill-opacity=".116" d="M30.067 83.07a.438.438 0 1 0 0-.875.438.438 0 0 0 0 .875"/><path fill="#05070a" fill-opacity=".134" d="M23.87 85.203a.515.515 0 1 0 0-1.03.515.515 0 0 0 0 1.03"/><path fill="#05070a" fill-opacity=".152" d="M17.816 87.028a.592.592 0 1 0 0-1.183.592.592 0 0 0 0 1.183"/><path fill="#05070a" fill-opacity=".17" d="M11.97 88.132a.284.284 0 1 0 0-.568.284.284 0 0 0 0 .568"/><path fill="#05070a" fill-opacity=".188" d="M35.747 73.358a.36.36 0 1 0 0-.721.36.36 0 0 0 0 .72"/><path fill="#05070a" fill-opacity=".08" d="M30.844 75.215a.438.438 0 1 0 0-.875.438.438 0 0 0 0 .875"/><path fill="#05070a" fill-opacity=".098" d="M25.897 76.615a.515.515 0 1 0 0-1.03.515.515 0 0 0 0 1.03"/><path fill="#05070a" fill-opacity=".116" d="M20.748 77.514a.592.592 0 1 0 0-1.183.592.592 0 0 0 0 1.183"/><path fill="#05070a" fill-opacity=".134" d="M15.25 77.502a.284.284 0 1 0 0-.567.284.284 0 0 0 0 .567"/><path fill="#05070a" fill-opacity=".152" d="M9.297 77.338a.36.36 0 1 0 0-.721.36.36 0 0 0 0 .72"/><path fill="#05070a" fill-opacity=".17" d="M35.178 68.132a.438.438 0 1 0 0-.875.438.438 0 0 0 0 .875"/><path fill="#05070a" fill-opacity=".188" d="M28.588 68.22a.515.515 0 1 0 0-1.03.515.515 0 0 0 0 1.03"/><path fill="#05070a" fill-opacity=".08" d="M21.617 67.835a.592.592 0 1 0 0-1.184.592.592 0 0 0 0 1.184"/><path fill="#05070a" fill-opacity=".098" d="M14.454 66.615a.284.284 0 1 0 0-.567.284.284 0 0 0 0 .567"/><path fill="#05070a" fill-opacity=".116" d="M7.321 65.345a.36.36 0 1 0 0-.721.36.36 0 0 0 0 .721"/><path fill="#05070a" fill-opacity=".134" d="M.438 63.644a.438.438 0 1 0 0-.875.438.438 0 0 0 0 .875"/><path fill="#05070a" fill-opacity=".152" d="M27.419 60.839a.515.515 0 1 0 0-1.03.515.515 0 0 0 0 1.03"/><path fill="#05070a" fill-opacity=".17" d="M21.522 59.565a.592.592 0 1 0 0-1.184.592.592 0 0 0 0 1.184"/><path fill="#05070a" fill-opacity=".188" d="M16.152 57.43a.284.284 0 1 0 0-.568.284.284 0 0 0 0 .568"/><path fill="#05070a" fill-opacity=".08" d="M11.26 55.192a.36.36 0 1 0 0-.722.36.36 0 0 0 0 .722"/><path fill="#05070a" fill-opacity=".098" d="M6.721 52.46a.438.438 0 1 0 0-.876.438.438 0 0 0 0 .875"/><path fill="#05070a" fill-opacity=".116" d="M35.277 55.17a.515.515 0 1 0 0-1.03.515.515 0 0 0 0 1.03"/><path fill="#05070a" fill-opacity=".134" d="M30.687 52.787a.592.592 0 1 0 0-1.183.592.592 0 0 0 0 1.183"/><path fill="#05070a" fill-opacity=".152" d="M25.93 49.581a.284.284 0 1 0 0-.567.284.284 0 0 0 0 .567"/><path fill="#05070a" fill-opacity=".17" d="M20.926 46.355a.36.36 0 1 0 0-.722.36.36 0 0 0 0 .721"/><path fill="#05070a" fill-opacity=".188" d="M15.678 42.76a.438.438 0 1 0 0-.876.438.438 0 0 0 0 .875"/><path fill="#05070a" fill-opacity=".08" d="M10.274 38.824a.515.515 0 1 0 0-1.03.515.515 0 0 0 0 1.03"/><path fill="#05070a" fill-opacity=".098" d="M35.445 48.062a.592.592 0 1 0 0-1.183.592.592 0 0 0 0 1.183"/><path fill="#05070a" fill-opacity=".116" d="M29.666 44.276a.284.284 0 1 0 0-.567.284.284 0 0 0 0 .567"/><path fill="#05070a" fill-opacity=".134" d="M24.238 40.501a.36.36 0 1 0 0-.721.36.36 0 0 0 0 .721"/><path fill="#05070a" fill-opacity=".152" d="M19.342 36.327a.438.438 0 1 0 0-.876.438.438 0 0 0 0 .876"/><path fill="#05070a" fill-opacity=".17" d="M15.107 31.727a.515.515 0 1 0 0-1.03.515.515 0 0 0 0 1.03"/><path fill="#05070a" fill-opacity=".188" d="M11.593 26.685a.591.591 0 1 0 0-1.183.591.591 0 0 0 0 1.183"/><path fill="#05070a" fill-opacity=".08" d="M35.32 41.147a.284.284 0 1 0 0-.567.284.284 0 0 0 0 .567"/><path fill="#05070a" fill-opacity=".098" d="M32.3 36.288a.36.36 0 1 0 0-.721.36.36 0 0 0 0 .721"/><path fill="#05070a" fill-opacity=".116" d="M29.74 31.034a.438.438 0 1 0 0-.875.438.438 0 0 0 0 .875"/></svg>