<svg viewBox="0 0 486 120" xmlns="http://www.w3.org/2000/svg"><path d="M465.6 25.0C478.0 25.0 485.2 32.8 485.2 45.6V94H473.4V47.2C473.4 37.1 469.3 34.2 462.8 34.2C455.3 34.2 450.1 38.9 445.7 46.1V94H433.9V26.5H444.0L445.0 36.5C449.6 29.6 456.8 25.0 465.6 25.0Z" fill="#161616"/><path d="M433.1 58.5C433.1 60.7 432.9 63.4 432.8 65.2H390.3C391.5 79.0 397.9 83.5 406.9 83.5C412.9 83.5 417.9 81.5 423.8 77.4L430.6 86.8C423.9 92.2 415.7 95.9 405.5 95.9C384.5 95.9 373.2 81.9 373.2 60.5C373.2 39.9 384.1 24.3 403.3 24.3C422.3 24.3 433.1 37.1 433.1 58.5ZM416.9 54.5V53.8C416.9 42.6 412.9 36.0 403.7 36.0C396.0 36.0 391.2 41.1 390.3 54.5H416.9Z" fill="#161616"/><path d="M373.5 58.5C373.5 60.8 373.3 63.6 373.2 65.5H330.8C332.1 78.6 338.2 82.4 346.9 82.4C352.7 82.4 357.5 80.6 363.4 76.5L371.0 86.8C364.3 92.2 355.9 96.0 345.2 96.0C323.5 96.0 312.1 81.7 312.1 60.4C312.1 39.9 323.1 24.1 342.9 24.1C362.1 24.1 373.5 36.9 373.5 58.5ZM355.5 54.1V53.4C355.5 43.1 352.0 36.5 343.3 36.5C336.2 36.5 331.8 41.2 330.8 54.1H355.5Z" fill="#161616"/><path d="M287.5 23.8C297.3 23.8 306.2 27.0 312.4 32.1L305.0 43.5C299.8 40.2 294.1 38.3 288.2 38.3C282.7 38.3 280.0 40.3 280.0 43.4C280.0 47.0 281.8 48.5 294.0 52.1C307.4 55.9 315.0 61.6 315.0 73.7C315.0 87.8 301.7 96.1 284.8 96.1C273.0 96.1 263.0 92.0 256.4 86.0L266.2 75.0C271.3 79.0 277.6 81.7 284.3 81.7C290.4 81.7 294.1 79.4 294.1 75.3C294.1 70.7 292.1 69.2 279.8 65.8C266.3 62 259.7 55.0 259.7 44.5C259.7 32.9 270.3 23.8 287.5 23.8Z" fill="#161616"/><path d="M241.1 23.4C252.6 23.4 259.8 30.8 259.8 43.9V94H237.0V48.0C237.0 41.7 235.0 40.1 231.9 40.1C228.2 40.1 224.9 42.8 221.7 47.9V94H198.9V25.7H218.7L220.4 33.4C226.4 26.6 232.8 23.4 241.1 23.4Z" fill="#161616"/><path d="M197.0 94H174.9L174.0 86.5C169.3 93.2 162.5 96.5 153.8 96.5C147.4 96.5 142.6 94.6 139.4 90.8C136.3 86.9 134.7 81.6 134.7 74.8V25.6H160.0V71.4C160.0 73.9 160.4 75.6 161.1 76.7C161.8 77.6 162.9 78.1 164.3 78.1C165.4 78.1 166.7 77.6 168.0 76.7C169.3 75.7 170.6 74.3 171.7 72.4V25.6H197.0V94Z" fill="#161616"/><g fill="#05070A"><path d="M119.3 64.3C121.9 64.3 124 62.2 124 59.7C124 57.1 121.9 55.0 119.3 55.0C116.7 55.0 114.6 57.1 114.6 59.7C114.6 62.2 116.7 64.3 119.3 64.3Z" fill-opacity="0.9"/><path d="M118.9 70.7C121.5 70.7 123.6 68.6 123.6 66.1C123.6 63.5 121.5 61.4 118.9 61.4C116.4 61.4 114.3 63.5 114.3 66.1C114.3 68.6 116.4 70.7 118.9 70.7Z" fill-opacity="0.9"/><path d="M117.9 77.0C120.4 77.0 122.5 74.9 122.5 72.4C122.5 69.8 120.4 67.8 117.9 67.8C115.3 67.8 113.3 69.8 113.3 72.4C113.3 74.9 115.3 77.0 117.9 77.0Z" fill-opacity="0.9"/><path d="M116.1 83.0C118.6 83.0 120.6 81.0 120.6 78.5C120.6 76.0 118.6 74.0 116.1 74.0C113.6 74.0 111.6 76.0 111.6 78.5C111.6 81.0 113.6 83.0 116.1 83.0Z" fill-opacity="0.9"/><path d="M113.6 88.9C116.1 88.9 118.0 86.9 118.0 84.4C118.0 82.0 116.1 80.0 113.6 80.0C111.2 80.0 109.2 82.0 109.2 84.4C109.2 86.9 111.2 88.9 113.6 88.9Z" fill-opacity="0.8"/><path d="M110.5 94.3C112.9 94.3 114.8 92.4 114.8 90.0C114.8 87.7 112.9 85.8 110.5 85.8C108.2 85.8 106.2 87.7 106.2 90.0C106.2 92.4 108.2 94.3 110.5 94.3Z" fill-opacity="0.8"/><path d="M106.8 99.4C109.1 99.4 111.0 97.5 111.0 95.3C111.0 93.0 109.1 91.1 106.8 91.1C104.5 91.1 102.7 93.0 102.7 95.3C102.7 97.5 104.5 99.4 106.8 99.4Z" fill-opacity="0.7"/><path d="M102.6 104.0C104.7 104.0 106.5 102.2 106.5 100.0C106.5 97.9 104.7 96.1 102.6 96.1C100.4 96.1 98.6 97.9 98.6 100.0C98.6 102.2 100.4 104.0 102.6 104.0Z" fill-opacity="0.7"/><path d="M97.8 108.1C99.9 108.1 101.5 106.4 101.5 104.3C101.5 102.2 99.9 100.5 97.8 100.5C95.7 100.5 94.0 102.2 94.0 104.3C94.0 106.4 95.7 108.1 97.8 108.1Z" fill-opacity="0.6"/><path d="M92.5 111.6C94.5 111.6 96.1 110.0 96.1 108.0C96.1 106.0 94.5 104.4 92.5 104.4C90.6 104.4 89.0 106.0 89.0 108.0C89.0 110.0 90.6 111.6 92.5 111.6Z" fill-opacity="0.5"/><path d="M86.9 114.5C88.8 114.5 90.3 113.0 90.3 111.1C90.3 109.3 88.8 107.7 86.9 107.7C85.1 107.7 83.6 109.3 83.6 111.1C83.6 113.0 85.1 114.5 86.9 114.5Z" fill-opacity="0.5"/><path d="M81.0 116.7C82.8 116.7 84.2 115.3 84.2 113.6C84.2 111.8 82.8 110.4 81.0 110.4C79.3 110.4 77.8 111.8 77.8 113.6C77.8 115.3 79.3 116.7 81.0 116.7Z" fill-opacity="0.4"/><path d="M74.9 118.3C76.5 118.3 77.8 117.0 77.8 115.3C77.8 113.7 76.5 112.4 74.9 112.4C73.2 112.4 71.9 113.7 71.9 115.3C71.9 117.0 73.2 118.3 74.9 118.3Z" fill-opacity="0.4"/><path d="M68.5 119.2C70.1 119.2 71.3 117.9 71.3 116.4C71.3 114.9 70.1 113.6 68.5 113.6C67.0 113.6 65.8 114.9 65.8 116.4C65.8 117.9 67.0 119.2 68.5 119.2Z" fill-opacity="0.3"/><path d="M62.1 119.4C63.6 119.4 64.7 118.2 64.7 116.8C64.7 115.3 63.6 114.2 62.1 114.2C60.7 114.2 59.6 115.3 59.6 116.8C59.6 118.2 60.7 119.4 62.1 119.4Z" fill-opacity="0.2"/><path d="M55.6 120C57.0 120 58.0 118.9 58.0 117.5C58.0 116.2 57.0 115.1 55.6 115.1C54.3 115.1 53.2 116.2 53.2 117.5C53.2 118.9 54.3 120 55.6 120Z" fill-opacity="0.2"/><path d="M49.2 118.7C50.4 118.7 51.4 117.7 51.4 116.5C51.4 115.2 50.4 114.2 49.2 114.2C47.9 114.2 46.9 115.2 46.9 116.5C46.9 117.7 47.9 118.7 49.2 118.7Z" fill-opacity="0.2"/><path d="M42.9 116.7C44.1 116.7 45.0 115.7 45.0 114.6C45.0 113.4 44.1 112.4 42.9 112.4C41.8 112.4 40.8 113.4 40.8 114.6C40.8 115.7 41.8 116.7 42.9 116.7Z" fill-opacity="0.1"/><path d="M37.0 113.6C38.0 113.6 38.8 112.8 38.8 111.8C38.8 110.8 38.0 110.0 37.0 110.0C36.0 110.0 35.3 110.8 35.3 111.8C35.3 112.8 36.0 113.6 37.0 113.6Z" fill-opacity="0.0"/><path d="M31.6 109.9C32.5 109.9 33.2 109.2 33.2 108.3C33.2 107.4 32.5 106.6 31.6 106.6C30.7 106.6 29.9 107.4 29.9 108.3C29.9 109.2 30.7 109.9 31.6 109.9Z" fill-opacity="0.0"/><path d="M26.6 105.7C27.5 105.7 28.2 105.0 28.2 104.1C28.2 103.3 27.5 102.6 26.6 102.6C25.8 102.6 25.1 103.3 25.1 104.1C25.1 105.0 25.8 105.7 26.6 105.7Z" fill-opacity="0.0"/><path d="M22.3 101.0C23.1 101.0 23.8 100.3 23.8 99.5C23.8 98.7 23.1 98.0 22.3 98.0C21.5 98.0 20.8 98.7 20.8 99.5C20.8 100.3 21.5 101.0 22.3 101.0Z" fill-opacity="0.0"/><path d="M18.5 95.9C19.3 95.9 19.9 95.2 19.9 94.5C19.9 93.7 19.3 93.0 18.5 93.0C17.7 93.0 17.1 93.7 17.1 94.5C17.1 95.2 17.7 95.9 18.5 95.9Z" fill-opacity="0.0"/><path d="M15.2 90.5C16.0 90.5 16.6 89.9 16.6 89.1C16.6 88.4 16.0 87.8 15.2 87.8C14.4 87.8 13.8 88.4 13.8 89.1C13.8 89.9 14.4 90.5 15.2 90.5Z" fill-opacity="0.0"/><path d="M12.4 84.9C13.1 84.9 13.7 84.3 13.7 83.6C13.7 82.9 13.1 82.3 12.4 82.3C11.7 82.3 11.1 82.9 11.1 83.6C11.1 84.3 11.7 84.9 12.4 84.9Z" fill-opacity="0.0"/><path d="M10.0 79.2C10.7 79.2 11.3 78.6 11.3 77.9C11.3 77.2 10.7 76.6 10.0 76.6C9.3 76.6 8.7 77.2 8.7 77.9C8.7 78.6 9.3 79.2 10.0 79.2Z" fill-opacity="0.0"/><path d="M8.1 73.2C8.8 73.2 9.3 72.7 9.3 72.0C9.3 71.3 8.8 70.8 8.1 70.8C7.4 70.8 6.8 71.3 6.8 72.0C6.8 72.7 7.4 73.2 8.1 73.2Z" fill-opacity="0.0"/><path d="M6.6 67.1C7.3 67.1 7.8 66.6 7.8 65.9C7.8 65.2 7.3 64.7 6.6 64.7C5.9 64.7 5.4 65.2 5.4 65.9C5.4 66.6 5.9 67.1 6.6 67.1Z" fill-opacity="0.0"/><path d="M5.6 60.8C6.3 60.8 6.8 60.3 6.8 59.7C6.8 59.0 6.3 58.5 5.6 58.5C5.0 58.5 4.5 59.0 4.5 59.7C4.5 60.3 5.0 60.8 5.6 60.8Z" fill-opacity="0.0"/><path d="M5.3 54.4C6.0 54.4 6.5 53.9 6.5 53.3C6.5 52.6 6.0 52.1 5.3 52.1C4.7 52.1 4.2 52.6 4.2 53.3C4.2 53.9 4.7 54.4 5.3 54.4Z" fill-opacity="0.0"/><path d="M5.8 47.9C6.4 47.9 6.9 47.4 6.9 46.8C6.9 46.2 6.4 45.7 5.8 45.7C5.1 45.7 4.6 46.2 4.6 46.8C4.6 47.4 5.1 47.9 5.8 47.9Z" fill-opacity="0.0"/><path d="M7.0 41.5C7.6 41.5 8.1 41.0 8.1 40.4C8.1 39.8 7.6 39.3 7.0 39.3C6.4 39.3 5.9 39.8 5.9 40.4C5.9 41.0 6.4 41.5 7.0 41.5Z" fill-opacity="0.0"/><path d="M9.2 35.2C9.8 35.2 10.2 34.7 10.2 34.2C10.2 33.6 9.8 33.1 9.2 33.1C8.6 33.1 8.1 33.6 8.1 34.2C8.1 34.7 8.6 35.2 9.2 35.2Z" fill-opacity="0.0"/><path d="M12.2 29.3C12.8 29.3 13.3 28.9 13.3 28.3C13.3 27.7 12.8 27.2 12.2 27.2C11.6 27.2 11.2 27.7 11.2 28.3C11.2 28.9 11.6 29.3 12.2 29.3Z" fill-opacity="0.0"/><path d="M16.1 24.0C16.6 24.0 17.1 23.5 17.1 22.9C17.1 22.4 16.6 21.9 16.1 21.9C15.5 21.9 15.0 22.4 15.0 22.9C15.0 23.5 15.5 24.0 16.1 24.0Z" fill-opacity="0.0"/><path d="M20.6 19.2C21.2 19.2 21.7 18.8 21.7 18.2C21.7 17.6 21.2 17.1 20.6 17.1C20.1 17.1 19.6 17.6 19.6 18.2C19.6 18.8 20.1 19.2 20.6 19.2Z" fill-opacity="0.0"/><path d="M25.8 15.2C26.4 15.2 26.9 14.7 26.9 14.1C26.9 13.5 26.4 13.0 25.8 13.0C25.2 13.0 24.7 13.5 24.7 14.1C24.7 14.7 25.2 15.2 25.8 15.2Z" fill-opacity="0.0"/><path d="M31.4 11.8C32.0 11.8 32.5 11.3 32.5 10.7C32.5 10.1 32.0 9.6 31.4 9.6C30.8 9.6 30.3 10.1 30.3 10.7C30.3 11.3 30.8 11.8 31.4 11.8Z" fill-opacity="0.0"/><path d="M37.3 9.2C37.9 9.2 38.4 8.7 38.4 8.1C38.4 7.4 37.9 6.9 37.3 6.9C36.7 6.9 36.2 7.4 36.2 8.1C36.2 8.7 36.7 9.2 37.3 9.2Z" fill-opacity="0.0"/><path d="M43.4 8.2C44.5 8.2 45.5 7.2 45.5 6.0C45.5 4.9 44.5 3.9 43.4 3.9C42.2 3.9 41.3 4.9 41.3 6.0C41.3 7.2 42.2 8.2 43.4 8.2Z" fill-opacity="0.1"/><path d="M49.6 6.9C50.8 6.9 51.8 5.9 51.8 4.6C51.8 3.4 50.8 2.4 49.6 2.4C48.3 2.4 47.3 3.4 47.3 4.6C47.3 5.9 48.3 6.9 49.6 6.9Z" fill-opacity="0.2"/><path d="M55.8 6.2C57.2 6.2 58.3 5.1 58.3 3.8C58.3 2.4 57.2 1.4 55.8 1.4C54.5 1.4 53.4 2.4 53.4 3.8C53.4 5.1 54.5 6.2 55.8 6.2Z" fill-opacity="0.2"/><path d="M62.1 5.1C63.6 5.1 64.7 4.0 64.7 2.5C64.7 1.1 63.6 0 62.1 0C60.7 0 59.6 1.1 59.6 2.5C59.6 4.0 60.7 5.1 62.1 5.1Z" fill-opacity="0.2"/><path d="M68.5 5.7C70.1 5.7 71.3 4.4 71.3 2.9C71.3 1.4 70.1 0.1 68.5 0.1C67.0 0.1 65.8 1.4 65.8 2.9C65.8 4.4 67.0 5.7 68.5 5.7Z" fill-opacity="0.3"/><path d="M74.9 6.9C76.5 6.9 77.8 5.6 77.8 4.0C77.8 2.3 76.5 1.0 74.9 1.0C73.2 1.0 71.9 2.3 71.9 4.0C71.9 5.6 73.2 6.9 74.9 6.9Z" fill-opacity="0.4"/><path d="M81.0 8.9C82.8 8.9 84.2 7.5 84.2 5.7C84.2 4.0 82.8 2.6 81.0 2.6C79.3 2.6 77.8 4.0 77.8 5.7C77.8 7.5 79.3 8.9 81.0 8.9Z" fill-opacity="0.4"/><path d="M86.9 11.6C88.8 11.6 90.3 10.1 90.3 8.2C90.3 6.3 88.8 4.8 86.9 4.8C85.1 4.8 83.6 6.3 83.6 8.2C83.6 10.1 85.1 11.6 86.9 11.6Z" fill-opacity="0.5"/><path d="M92.5 14.9C94.5 14.9 96.1 13.3 96.1 11.3C96.1 9.3 94.5 7.7 92.5 7.7C90.6 7.7 89.0 9.3 89.0 11.3C89.0 13.3 90.6 14.9 92.5 14.9Z" fill-opacity="0.5"/><path d="M97.8 18.8C99.9 18.8 101.5 17.1 101.5 15.0C101.5 12.9 99.9 11.2 97.8 11.2C95.7 11.2 94.0 12.9 94.0 15.0C94.0 17.1 95.7 18.8 97.8 18.8Z" fill-opacity="0.6"/><path d="M102.6 23.2C104.7 23.2 106.5 21.5 106.5 19.3C106.5 17.1 104.7 15.3 102.6 15.3C100.4 15.3 98.6 17.1 98.6 19.3C98.6 21.5 100.4 23.2 102.6 23.2Z" fill-opacity="0.7"/><path d="M106.8 28.2C109.1 28.2 111.0 26.3 111.0 24.0C111.0 21.8 109.1 19.9 106.8 19.9C104.5 19.9 102.7 21.8 102.7 24.0C102.7 26.3 104.5 28.2 106.8 28.2Z" fill-opacity="0.7"/><path d="M110.5 33.6C112.9 33.6 114.8 31.6 114.8 29.3C114.8 26.9 112.9 25.0 110.5 25.0C108.2 25.0 106.2 26.9 106.2 29.3C106.2 31.6 108.2 33.6 110.5 33.6Z" fill-opacity="0.8"/><path d="M113.6 39.3C116.1 39.3 118.0 37.3 118.0 34.9C118.0 32.4 116.1 30.5 113.6 30.5C111.2 30.5 109.2 32.4 109.2 34.9C109.2 37.3 111.2 39.3 113.6 39.3Z" fill-opacity="0.8"/><path d="M116.1 45.3C118.6 45.3 120.6 43.3 120.6 40.8C120.6 38.3 118.6 36.3 116.1 36.3C113.6 36.3 111.6 38.3 111.6 40.8C111.6 43.3 113.6 45.3 116.1 45.3Z" fill-opacity="0.9"/><path d="M117.9 51.5C120.4 51.5 122.5 49.5 122.5 46.9C122.5 44.4 120.4 42.4 117.9 42.4C115.3 42.4 113.3 44.4 113.3 46.9C113.3 49.5 115.3 51.5 117.9 51.5Z" fill-opacity="0.9"/><path d="M118.9 57.9C121.5 57.9 123.6 55.8 123.6 53.3C123.6 50.7 121.5 48.6 118.9 48.6C116.4 48.6 114.3 50.7 114.3 53.3C114.3 55.8 116.4 57.9 118.9 57.9Z" fill-opacity="0.9"/><path d="M109.9 65.7C111.9 65.7 113.6 64.1 113.6 62.0C113.6 60.0 111.9 58.4 109.9 58.4C107.9 58.4 106.2 60.0 106.2 62.0C106.2 64.1 107.9 65.7 109.9 65.7Z" fill-opacity="0.9"/><path d="M109.2 71.9C111.2 71.9 112.8 70.3 112.8 68.3C112.8 66.2 111.2 64.6 109.2 64.6C107.2 64.6 105.5 66.2 105.5 68.3C105.5 70.3 107.2 71.9 109.2 71.9Z" fill-opacity="0.9"/><path d="M107.7 77.9C109.6 77.9 111.3 76.3 111.3 74.3C111.3 72.3 109.6 70.7 107.7 70.7C105.7 70.7 104.1 72.3 104.1 74.3C104.1 76.3 105.7 77.9 107.7 77.9Z" fill-opacity="0.9"/><path d="M105.4 83.6C107.3 83.6 108.9 82.1 108.9 80.1C108.9 78.2 107.3 76.6 105.4 76.6C103.4 76.6 101.9 78.2 101.9 80.1C101.9 82.1 103.4 83.6 105.4 83.6Z" fill-opacity="0.8"/><path d="M102.3 89.0C104.2 89.0 105.7 87.5 105.7 85.6C105.7 83.7 104.2 82.2 102.3 82.2C100.5 82.2 98.9 83.7 98.9 85.6C98.9 87.5 100.5 89.0 102.3 89.0Z" fill-opacity="0.8"/><path d="M98.6 93.8C100.4 93.8 101.8 92.4 101.8 90.6C101.8 88.8 100.4 87.4 98.6 87.4C96.8 87.4 95.4 88.8 95.4 90.6C95.4 92.4 96.8 93.8 98.6 93.8Z" fill-opacity="0.7"/><path d="M94.2 98.2C95.9 98.2 97.3 96.8 97.3 95.1C97.3 93.4 95.9 92.0 94.2 92.0C92.5 92.0 91.2 93.4 91.2 95.1C91.2 96.8 92.5 98.2 94.2 98.2Z" fill-opacity="0.7"/><path d="M89.3 101.9C90.9 101.9 92.2 100.6 92.2 99.0C92.2 97.4 90.9 96.1 89.3 96.1C87.7 96.1 86.4 97.4 86.4 99.0C86.4 100.6 87.7 101.9 89.3 101.9Z" fill-opacity="0.6"/><path d="M84.0 104.9C85.4 104.9 86.7 103.7 86.7 102.2C86.7 100.7 85.4 99.5 84.0 99.5C82.5 99.5 81.3 100.7 81.3 102.2C81.3 103.7 82.5 104.9 84.0 104.9Z" fill-opacity="0.5"/><path d="M78.2 107.2C79.6 107.2 80.7 106.1 80.7 104.7C80.7 103.3 79.6 102.2 78.2 102.2C76.8 102.2 75.7 103.3 75.7 104.7C75.7 106.1 76.8 107.2 78.2 107.2Z" fill-opacity="0.4"/><path d="M72.2 108.7C73.5 108.7 74.5 107.7 74.5 106.4C74.5 105.1 73.5 104.1 72.2 104.1C70.9 104.1 69.9 105.1 69.9 106.4C69.9 107.7 70.9 108.7 72.2 108.7Z" fill-opacity="0.3"/><path d="M66.0 109.4C67.2 109.4 68.1 108.5 68.1 107.3C68.1 106.1 67.2 105.2 66.0 105.2C64.8 105.2 63.9 106.1 63.9 107.3C63.9 108.5 64.8 109.4 66.0 109.4Z" fill-opacity="0.3"/><path d="M59.8 109.4C60.8 109.4 61.7 108.5 61.7 107.4C61.7 106.3 60.8 105.4 59.8 105.4C58.7 105.4 57.8 106.3 57.8 107.4C57.8 108.5 58.7 109.4 59.8 109.4Z" fill-opacity="0.2"/><path d="M53.3 109.6C54.3 109.6 55.1 108.8 55.1 107.8C55.1 106.8 54.3 106.0 53.3 106.0C52.3 106.0 51.5 106.8 51.5 107.8C51.5 108.8 52.3 109.6 53.3 109.6Z" fill-opacity="0.2"/><path d="M47.1 108.1C48.0 108.1 48.8 107.3 48.8 106.4C48.8 105.5 48.0 104.7 47.1 104.7C46.1 104.7 45.4 105.5 45.4 106.4C45.4 107.3 46.1 108.1 47.1 108.1Z" fill-opacity="0.1"/><path d="M41.1 105.3C41.9 105.3 42.5 104.7 42.5 104.0C42.5 103.2 41.9 102.6 41.1 102.6C40.4 102.6 39.7 103.2 39.7 104.0C39.7 104.7 40.4 105.3 41.1 105.3Z" fill-opacity="0.0"/><path d="M35.7 101.9C36.4 101.9 37.0 101.3 37.0 100.6C37.0 99.9 36.4 99.3 35.7 99.3C35.0 99.3 34.4 99.9 34.4 100.6C34.4 101.3 35.0 101.9 35.7 101.9Z" fill-opacity="0.0"/><path d="M30.9 97.6C31.6 97.6 32.1 97.0 32.1 96.4C32.1 95.7 31.6 95.2 30.9 95.2C30.3 95.2 29.7 95.7 29.7 96.4C29.7 97.0 30.3 97.6 30.9 97.6Z" fill-opacity="0.0"/><path d="M26.9 92.7C27.5 92.7 28.0 92.2 28.0 91.5C28.0 90.9 27.5 90.4 26.9 90.4C26.3 90.4 25.8 90.9 25.8 91.5C25.8 92.2 26.3 92.7 26.9 92.7Z" fill-opacity="0.0"/><path d="M23.6 87.4C24.2 87.4 24.7 86.9 24.7 86.3C24.7 85.7 24.2 85.2 23.6 85.2C23.0 85.2 22.5 85.7 22.5 86.3C22.5 86.9 23.0 87.4 23.6 87.4Z" fill-opacity="0.0"/><path d="M21.0 81.8C21.5 81.8 22.0 81.3 22.0 80.8C22.0 80.2 21.5 79.7 21.0 79.7C20.4 79.7 19.9 80.2 19.9 80.8C19.9 81.3 20.4 81.8 21.0 81.8Z" fill-opacity="0.0"/><path d="M18.9 76.1C19.5 76.1 19.9 75.6 19.9 75.1C19.9 74.5 19.5 74.1 18.9 74.1C18.4 74.1 17.9 74.5 17.9 75.1C17.9 75.6 18.4 76.1 18.9 76.1Z" fill-opacity="0.0"/><path d="M17.3 70.2C17.9 70.2 18.3 69.8 18.3 69.3C18.3 68.8 17.9 68.3 17.3 68.3C16.8 68.3 16.4 68.8 16.4 69.3C16.4 69.8 16.8 70.2 17.3 70.2Z" fill-opacity="0.0"/><path d="M16.2 64.3C16.7 64.3 17.1 63.9 17.1 63.4C17.1 62.9 16.7 62.5 16.2 62.5C15.7 62.5 15.3 62.9 15.3 63.4C15.3 63.9 15.7 64.3 16.2 64.3Z" fill-opacity="0.0"/><path d="M15.6 58.2C16.1 58.2 16.5 57.8 16.5 57.3C16.5 56.8 16.1 56.4 15.6 56.4C15.1 56.4 14.7 56.8 14.7 57.3C14.7 57.8 15.1 58.2 15.6 58.2Z" fill-opacity="0.0"/><path d="M15.6 52.0C16.1 52.0 16.4 51.6 16.4 51.1C16.4 50.7 16.1 50.3 15.6 50.3C15.1 50.3 14.7 50.7 14.7 51.1C14.7 51.6 15.1 52.0 15.6 52.0Z" fill-opacity="0.0"/><path d="M16.3 45.7C16.8 45.7 17.2 45.4 17.2 44.9C17.2 44.4 16.8 44.1 16.3 44.1C15.9 44.1 15.5 44.4 15.5 44.9C15.5 45.4 15.9 45.7 16.3 45.7Z" fill-opacity="0.0"/><path d="M18.0 39.6C18.5 39.6 18.9 39.2 18.9 38.7C18.9 38.3 18.5 37.9 18.0 37.9C17.6 37.9 17.2 38.3 17.2 38.7C17.2 39.2 17.6 39.6 18.0 39.6Z" fill-opacity="0.0"/><path d="M20.7 33.7C21.2 33.7 21.5 33.3 21.5 32.9C21.5 32.5 21.2 32.1 20.7 32.1C20.3 32.1 19.9 32.5 19.9 32.9C19.9 33.3 20.3 33.7 20.7 33.7Z" fill-opacity="0.0"/><path d="M24.4 28.4C24.8 28.4 25.2 28.0 25.2 27.6C25.2 27.1 24.8 26.8 24.4 26.8C23.9 26.8 23.6 27.1 23.6 27.6C23.6 28.0 23.9 28.4 24.4 28.4Z" fill-opacity="0.0"/><path d="M28.9 23.8C29.4 23.8 29.8 23.4 29.8 23.0C29.8 22.5 29.4 22.1 28.9 22.1C28.5 22.1 28.1 22.5 28.1 23.0C28.1 23.4 28.5 23.8 28.9 23.8Z" fill-opacity="0.0"/><path d="M34.2 20.1C34.7 20.1 35.0 19.7 35.0 19.2C35.0 18.7 34.7 18.4 34.2 18.4C33.7 18.4 33.4 18.7 33.4 19.2C33.4 19.7 33.7 20.1 34.2 20.1Z" fill-opacity="0.0"/><path d="M39.9 17.2C40.4 17.2 40.8 16.8 40.8 16.3C40.8 15.9 40.4 15.5 39.9 15.5C39.5 15.5 39.1 15.9 39.1 16.3C39.1 16.8 39.5 17.2 39.9 17.2Z" fill-opacity="0.0"/><path d="M46.0 16.0C46.9 16.0 47.6 15.2 47.6 14.3C47.6 13.4 46.9 12.7 46.0 12.7C45.1 12.7 44.3 13.4 44.3 14.3C44.3 15.2 45.1 16.0 46.0 16.0Z" fill-opacity="0.1"/><path d="M52.1 14.9C53.1 14.9 53.9 14.1 53.9 13.1C53.9 12.1 53.1 11.3 52.1 11.3C51.1 11.3 50.4 12.1 50.4 13.1C50.4 14.1 51.1 14.9 52.1 14.9Z" fill-opacity="0.2"/><path d="M58.3 13.9C59.3 13.9 60.2 13.1 60.2 12.0C60.2 10.9 59.3 10.1 58.3 10.1C57.2 10.1 56.4 10.9 56.4 12.0C56.4 13.1 57.2 13.9 58.3 13.9Z" fill-opacity="0.2"/><path d="M64.5 14.0C65.7 14.0 66.6 13.1 66.6 11.9C66.6 10.8 65.7 9.8 64.5 9.8C63.4 9.8 62.4 10.8 62.4 11.9C62.4 13.1 63.4 14.0 64.5 14.0Z" fill-opacity="0.3"/><path d="M70.7 14.9C72.0 14.9 73.0 13.9 73.0 12.6C73.0 11.4 72.0 10.4 70.7 10.4C69.5 10.4 68.5 11.4 68.5 12.6C68.5 13.9 69.5 14.9 70.7 14.9Z" fill-opacity="0.3"/><path d="M76.8 16.6C78.2 16.6 79.3 15.5 79.3 14.2C79.3 12.8 78.2 11.7 76.8 11.7C75.5 11.7 74.4 12.8 74.4 14.2C74.4 15.5 75.5 16.6 76.8 16.6Z" fill-opacity="0.4"/><path d="M82.6 19.1C84.1 19.1 85.3 17.9 85.3 16.5C85.3 15.0 84.1 13.8 82.6 13.8C81.2 13.8 80.0 15.0 80.0 16.5C80.0 17.9 81.2 19.1 82.6 19.1Z" fill-opacity="0.5"/><path d="M88.1 22.3C89.7 22.3 90.9 21.1 90.9 19.5C90.9 17.9 89.7 16.7 88.1 16.7C86.5 16.7 85.3 17.9 85.3 19.5C85.3 21.1 86.5 22.3 88.1 22.3Z" fill-opacity="0.6"/><path d="M93.1 26.3C94.8 26.3 96.1 24.9 96.1 23.2C96.1 21.6 94.8 20.2 93.1 20.2C91.4 20.2 90.1 21.6 90.1 23.2C90.1 24.9 91.4 26.3 93.1 26.3Z" fill-opacity="0.6"/><path d="M97.6 30.8C99.4 30.8 100.8 29.3 100.8 27.6C100.8 25.8 99.4 24.4 97.6 24.4C95.8 24.4 94.4 25.8 94.4 27.6C94.4 29.3 95.8 30.8 97.6 30.8Z" fill-opacity="0.7"/><path d="M101.5 35.8C103.3 35.8 104.8 34.3 104.8 32.5C104.8 30.6 103.3 29.1 101.5 29.1C99.6 29.1 98.2 30.6 98.2 32.5C98.2 34.3 99.6 35.8 101.5 35.8Z" fill-opacity="0.8"/><path d="M104.7 41.3C106.6 41.3 108.2 39.8 108.2 37.9C108.2 35.9 106.6 34.4 104.7 34.4C102.8 34.4 101.2 35.9 101.2 37.9C101.2 39.8 102.8 41.3 104.7 41.3Z" fill-opacity="0.8"/><path d="M107.2 47.2C109.2 47.2 110.8 45.6 110.8 43.6C110.8 41.6 109.2 40.0 107.2 40.0C105.2 40.0 103.6 41.6 103.6 43.6C103.6 45.6 105.2 47.2 107.2 47.2Z" fill-opacity="0.9"/><path d="M108.9 53.2C110.9 53.2 112.5 51.6 112.5 49.6C112.5 47.6 110.9 46.0 108.9 46.0C106.9 46.0 105.3 47.6 105.3 49.6C105.3 51.6 106.9 53.2 108.9 53.2Z" fill-opacity="0.9"/><path d="M109.8 59.5C111.8 59.5 113.5 57.8 113.5 55.8C113.5 53.8 111.8 52.1 109.8 52.1C107.8 52.1 106.1 53.8 106.1 55.8C106.1 57.8 107.8 59.5 109.8 59.5Z" fill-opacity="0.9"/><path d="M100.5 66.4C102.1 66.4 103.3 65.1 103.3 63.5C103.3 61.9 102.1 60.6 100.5 60.6C98.9 60.6 97.6 61.9 97.6 63.5C97.6 65.1 98.9 66.4 100.5 66.4Z" fill-opacity="0.9"/><path d="M99.4 72.3C101.0 72.3 102.2 71.0 102.2 69.4C102.2 67.9 101.0 66.6 99.4 66.6C97.8 66.6 96.5 67.9 96.5 69.4C96.5 71.0 97.8 72.3 99.4 72.3Z" fill-opacity="0.9"/><path d="M97.4 77.9C98.9 77.9 100.2 76.7 100.2 75.1C100.2 73.6 98.9 72.4 97.4 72.4C95.9 72.4 94.6 73.6 94.6 75.1C94.6 76.7 95.9 77.9 97.4 77.9Z" fill-opacity="0.9"/><path d="M94.5 83.1C96.0 83.1 97.2 81.9 97.2 80.5C97.2 79.0 96.0 77.8 94.5 77.8C93.1 77.8 91.9 79.0 91.9 80.5C91.9 81.9 93.1 83.1 94.5 83.1Z" fill-opacity="0.8"/><path d="M90.9 87.8C92.3 87.8 93.4 86.7 93.4 85.3C93.4 83.9 92.3 82.8 90.9 82.8C89.5 82.8 88.4 83.9 88.4 85.3C88.4 86.7 89.5 87.8 90.9 87.8Z" fill-opacity="0.7"/><path d="M86.5 91.8C87.8 91.8 88.9 90.7 88.9 89.4C88.9 88.2 87.8 87.1 86.5 87.1C85.2 87.1 84.2 88.2 84.2 89.4C84.2 90.7 85.2 91.8 86.5 91.8Z" fill-opacity="0.6"/><path d="M81.6 95.1C82.8 95.1 83.7 94.1 83.7 92.9C83.7 91.7 82.8 90.7 81.6 90.7C80.4 90.7 79.4 91.7 79.4 92.9C79.4 94.1 80.4 95.1 81.6 95.1Z" fill-opacity="0.5"/><path d="M76.1 97.5C77.2 97.5 78.1 96.6 78.1 95.5C78.1 94.4 77.2 93.5 76.1 93.5C75.0 93.5 74.1 94.4 74.1 95.5C74.1 96.6 75.0 97.5 76.1 97.5Z" fill-opacity="0.4"/><path d="M70.3 99.1C71.3 99.1 72.1 98.3 72.1 97.3C72.1 96.3 71.3 95.4 70.3 95.4C69.3 95.4 68.5 96.3 68.5 97.3C68.5 98.3 69.3 99.1 70.3 99.1Z" fill-opacity="0.3"/><path d="M64.3 99.7C65.3 99.7 66.0 99.0 66.0 98.1C66.0 97.2 65.3 96.4 64.3 96.4C63.4 96.4 62.7 97.2 62.7 98.1C62.7 99.0 63.4 99.7 64.3 99.7Z" fill-opacity="0.3"/><path d="M58.3 99.4C59.1 99.4 59.8 98.8 59.8 97.9C59.8 97.1 59.1 96.5 58.3 96.5C57.5 96.5 56.8 97.1 56.8 97.9C56.8 98.8 57.5 99.4 58.3 99.4Z" fill-opacity="0.2"/><path d="M52.1 99.3C52.8 99.3 53.4 98.7 53.4 98.0C53.4 97.2 52.8 96.6 52.1 96.6C51.3 96.6 50.7 97.2 50.7 98.0C50.7 98.7 51.3 99.3 52.1 99.3Z" fill-opacity="0.2"/><path d="M46.1 97.4C46.8 97.4 47.3 96.9 47.3 96.2C47.3 95.5 46.8 95.0 46.1 95.0C45.4 95.0 44.8 95.5 44.8 96.2C44.8 96.9 45.4 97.4 46.1 97.4Z" fill-opacity="0.1"/><path d="M40.6 94.2C41.1 94.2 41.6 93.8 41.6 93.2C41.6 92.6 41.1 92.2 40.6 92.2C40.0 92.2 39.6 92.6 39.6 93.2C39.6 93.8 40.0 94.2 40.6 94.2Z" fill-opacity="0.0"/><path d="M35.9 90.0C36.4 90.0 36.8 89.6 36.8 89.1C36.8 88.6 36.4 88.2 35.9 88.2C35.4 88.2 34.9 88.6 34.9 89.1C34.9 89.6 35.4 90.0 35.9 90.0Z" fill-opacity="0.0"/><path d="M32.1 85.0C32.6 85.0 33.0 84.7 33.0 84.2C33.0 83.7 32.6 83.3 32.1 83.3C31.6 83.3 31.3 83.7 31.3 84.2C31.3 84.7 31.6 85.0 32.1 85.0Z" fill-opacity="0.0"/><path d="M29.4 79.6C29.8 79.6 30.2 79.2 30.2 78.8C30.2 78.3 29.8 78.0 29.4 78.0C29.0 78.0 28.6 78.3 28.6 78.8C28.6 79.2 29.0 79.6 29.4 79.6Z" fill-opacity="0.0"/><path d="M27.6 73.9C28.0 73.9 28.3 73.5 28.3 73.1C28.3 72.7 28.0 72.3 27.6 72.3C27.1 72.3 26.8 72.7 26.8 73.1C26.8 73.5 27.1 73.9 27.6 73.9Z" fill-opacity="0.0"/><path d="M26.4 68.2C26.8 68.2 27.1 67.8 27.1 67.4C27.1 67.0 26.8 66.7 26.4 66.7C26.0 66.7 25.6 67.0 25.6 67.4C25.6 67.8 26.0 68.2 26.4 68.2Z" fill-opacity="0.0"/><path d="M25.7 62.5C26.1 62.5 26.4 62.1 26.4 61.7C26.4 61.3 26.1 61.0 25.7 61.0C25.3 61.0 25.0 61.3 25.0 61.7C25.0 62.1 25.3 62.5 25.7 62.5Z" fill-opacity="0.0"/><path d="M25.5 56.7C25.8 56.7 26.2 56.4 26.2 56.0C26.2 55.6 25.8 55.3 25.5 55.3C25.1 55.3 24.8 55.6 24.8 56.0C24.8 56.4 25.1 56.7 25.5 56.7Z" fill-opacity="0.0"/><path d="M25.8 50.8C26.2 50.8 26.4 50.5 26.4 50.1C26.4 49.7 26.2 49.4 25.8 49.4C25.4 49.4 25.1 49.7 25.1 50.1C25.1 50.5 25.4 50.8 25.8 50.8Z" fill-opacity="0.0"/><path d="M26.9 44.8C27.3 44.8 27.5 44.5 27.5 44.2C27.5 43.8 27.3 43.5 26.9 43.5C26.5 43.5 26.3 43.8 26.3 44.2C26.3 44.5 26.5 44.8 26.9 44.8Z" fill-opacity="0.0"/><path d="M29.0 39.0C29.4 39.0 29.7 38.7 29.7 38.4C29.7 38.0 29.4 37.8 29.0 37.8C28.7 37.8 28.4 38.0 28.4 38.4C28.4 38.7 28.7 39.0 29.0 39.0Z" fill-opacity="0.0"/><path d="M32.3 33.7C32.7 33.7 33.0 33.4 33.0 33.1C33.0 32.7 32.7 32.5 32.3 32.5C32.0 32.5 31.7 32.7 31.7 33.1C31.7 33.4 32.0 33.7 32.3 33.7Z" fill-opacity="0.0"/><path d="M36.7 29.2C37.1 29.2 37.4 29.0 37.4 28.6C37.4 28.2 37.1 28.0 36.7 28.0C36.4 28.0 36.1 28.2 36.1 28.6C36.1 29.0 36.4 29.2 36.7 29.2Z" fill-opacity="0.0"/><path d="M42.0 25.8C42.4 25.8 42.7 25.5 42.7 25.2C42.7 24.8 42.4 24.5 42.0 24.5C41.6 24.5 41.3 24.8 41.3 25.2C41.3 25.5 41.6 25.8 42.0 25.8Z" fill-opacity="0.0"/><path d="M47.8 24.2C48.5 24.2 49.1 23.6 49.1 22.9C49.1 22.2 48.5 21.6 47.8 21.6C47.1 21.6 46.6 22.2 46.6 22.9C46.6 23.6 47.1 24.2 47.8 24.2Z" fill-opacity="0.1"/><path d="M53.9 23.1C54.6 23.1 55.3 22.4 55.3 21.7C55.3 20.9 54.6 20.3 53.9 20.3C53.1 20.3 52.5 20.9 52.5 21.7C52.5 22.4 53.1 23.1 53.9 23.1Z" fill-opacity="0.2"/><path d="M59.9 22.8C60.8 22.8 61.5 22.1 61.5 21.2C61.5 20.4 60.8 19.7 59.9 19.7C59.1 19.7 58.4 20.4 58.4 21.2C58.4 22.1 59.1 22.8 59.9 22.8Z" fill-opacity="0.2"/><path d="M66.0 23.1C66.9 23.1 67.7 22.3 67.7 21.4C67.7 20.4 66.9 19.7 66.0 19.7C65.1 19.7 64.3 20.4 64.3 21.4C64.3 22.3 65.1 23.1 66.0 23.1Z" fill-opacity="0.3"/><path d="M71.9 24.3C73.0 24.3 73.8 23.5 73.8 22.4C73.8 21.4 73.0 20.6 71.9 20.6C70.9 20.6 70.1 21.4 70.1 22.4C70.1 23.5 70.9 24.3 71.9 24.3Z" fill-opacity="0.4"/><path d="M77.6 26.5C78.8 26.5 79.7 25.6 79.7 24.4C79.7 23.3 78.8 22.4 77.6 22.4C76.5 22.4 75.6 23.3 75.6 24.4C75.6 25.6 76.5 26.5 77.6 26.5Z" fill-opacity="0.5"/><path d="M83.0 29.5C84.2 29.5 85.2 28.5 85.2 27.3C85.2 26.1 84.2 25.1 83.0 25.1C81.7 25.1 80.7 26.1 80.7 27.3C80.7 28.5 81.7 29.5 83.0 29.5Z" fill-opacity="0.6"/><path d="M87.8 33.3C89.1 33.3 90.2 32.3 90.2 30.9C90.2 29.6 89.1 28.5 87.8 28.5C86.5 28.5 85.4 29.6 85.4 30.9C85.4 32.3 86.5 33.3 87.8 33.3Z" fill-opacity="0.6"/><path d="M92.0 37.8C93.4 37.8 94.5 36.7 94.5 35.3C94.5 33.9 93.4 32.7 92.0 32.7C90.5 32.7 89.4 33.9 89.4 35.3C89.4 36.7 90.5 37.8 92.0 37.8Z" fill-opacity="0.7"/><path d="M95.4 42.9C96.9 42.9 98.1 41.7 98.1 40.3C98.1 38.8 96.9 37.6 95.4 37.6C93.9 37.6 92.7 38.8 92.7 40.3C92.7 41.7 93.9 42.9 95.4 42.9Z" fill-opacity="0.8"/><path d="M98.0 48.5C99.6 48.5 100.8 47.2 100.8 45.7C100.8 44.2 99.6 42.9 98.0 42.9C96.5 42.9 95.2 44.2 95.2 45.7C95.2 47.2 96.5 48.5 98.0 48.5Z" fill-opacity="0.9"/><path d="M99.8 54.3C101.3 54.3 102.6 53.1 102.6 51.5C102.6 49.9 101.3 48.6 99.8 48.6C98.2 48.6 96.9 49.9 96.9 51.5C96.9 53.1 98.2 54.3 99.8 54.3Z" fill-opacity="0.9"/><path d="M100.6 60.4C102.2 60.4 103.5 59.1 103.5 57.5C103.5 55.9 102.2 54.6 100.6 54.6C99.0 54.6 97.7 55.9 97.7 57.5C97.7 59.1 99.0 60.4 100.6 60.4Z" fill-opacity="0.9"/><path d="M91.4 66.5C92.5 66.5 93.5 65.5 93.5 64.4C93.5 63.2 92.5 62.2 91.4 62.2C90.2 62.2 89.2 63.2 89.2 64.4C89.2 65.5 90.2 66.5 91.4 66.5Z" fill-opacity="0.9"/><path d="M89.9 72.0C91.0 72.0 91.9 71.1 91.9 70.0C91.9 68.8 91.0 67.9 89.9 67.9C88.7 67.9 87.8 68.8 87.8 70.0C87.8 71.1 88.7 72.0 89.9 72.0Z" fill-opacity="0.9"/><path d="M87.3 77.2C88.4 77.2 89.3 76.3 89.3 75.2C89.3 74.1 88.4 73.2 87.3 73.2C86.2 73.2 85.3 74.1 85.3 75.2C85.3 76.3 86.2 77.2 87.3 77.2Z" fill-opacity="0.8"/><path d="M83.8 81.6C84.8 81.6 85.7 80.8 85.7 79.8C85.7 78.8 84.8 77.9 83.8 77.9C82.8 77.9 82.0 78.8 82.0 79.8C82.0 80.8 82.8 81.6 83.8 81.6Z" fill-opacity="0.7"/><path d="M79.5 85.3C80.4 85.3 81.2 84.6 81.2 83.6C81.2 82.7 80.4 81.9 79.5 81.9C78.5 81.9 77.8 82.7 77.8 83.6C77.8 84.6 78.5 85.3 79.5 85.3Z" fill-opacity="0.6"/><path d="M74.5 88.1C75.3 88.1 76.0 87.4 76.0 86.5C76.0 85.7 75.3 85.0 74.5 85.0C73.6 85.0 72.9 85.7 72.9 86.5C72.9 87.4 73.6 88.1 74.5 88.1Z" fill-opacity="0.5"/><path d="M69.0 89.8C69.7 89.8 70.3 89.2 70.3 88.4C70.3 87.7 69.7 87.1 69.0 87.1C68.2 87.1 67.6 87.7 67.6 88.4C67.6 89.2 68.2 89.8 69.0 89.8Z" fill-opacity="0.4"/><path d="M63.2 90.4C63.9 90.4 64.4 89.9 64.4 89.2C64.4 88.5 63.9 88.0 63.2 88.0C62.6 88.0 62.0 88.5 62.0 89.2C62.0 89.9 62.6 90.4 63.2 90.4Z" fill-opacity="0.3"/><path d="M57.4 90.3C58.0 90.3 58.4 89.9 58.4 89.3C58.4 88.7 58.0 88.2 57.4 88.2C56.8 88.2 56.3 88.7 56.3 89.3C56.3 89.9 56.8 90.3 57.4 90.3Z" fill-opacity="0.2"/><path d="M51.4 89.4C52.0 89.4 52.4 88.9 52.4 88.4C52.4 87.9 52.0 87.5 51.4 87.5C50.9 87.5 50.5 87.9 50.5 88.4C50.5 88.9 50.9 89.4 51.4 89.4Z" fill-opacity="0.1"/><path d="M45.8 86.9C46.2 86.9 46.6 86.6 46.6 86.1C46.6 85.7 46.2 85.4 45.8 85.4C45.4 85.4 45.0 85.7 45.0 86.1C45.0 86.6 45.4 86.9 45.8 86.9Z" fill-opacity="0.0"/><path d="M41.0 83.0C41.4 83.0 41.7 82.7 41.7 82.4C41.7 82.0 41.4 81.7 41.0 81.7C40.6 81.7 40.3 82.0 40.3 82.4C40.3 82.7 40.6 83.0 41.0 83.0Z" fill-opacity="0.0"/><path d="M37.6 78.0C37.9 78.0 38.2 77.7 38.2 77.4C38.2 77.1 37.9 76.8 37.6 76.8C37.2 76.8 36.9 77.1 36.9 77.4C36.9 77.7 37.2 78.0 37.6 78.0Z" fill-opacity="0.0"/><path d="M35.5 72.4C35.9 72.4 36.1 72.1 36.1 71.8C36.1 71.5 35.9 71.2 35.5 71.2C35.2 71.2 35.0 71.5 35.0 71.8C35.0 72.1 35.2 72.4 35.5 72.4Z" fill-opacity="0.0"/><path d="M34.7 66.7C35.0 66.7 35.3 66.5 35.3 66.2C35.3 65.8 35.0 65.6 34.7 65.6C34.4 65.6 34.1 65.8 34.1 66.2C34.1 66.5 34.4 66.7 34.7 66.7Z" fill-opacity="0.0"/><path d="M34.6 61.2C34.9 61.2 35.1 61.0 35.1 60.7C35.1 60.4 34.9 60.1 34.6 60.1C34.3 60.1 34.0 60.4 34.0 60.7C34.0 61.0 34.3 61.2 34.6 61.2Z" fill-opacity="0.0"/><path d="M34.8 55.8C35.1 55.8 35.3 55.5 35.3 55.2C35.3 55.0 35.1 54.7 34.8 54.7C34.5 54.7 34.3 55.0 34.3 55.2C34.3 55.5 34.5 55.8 34.8 55.8Z" fill-opacity="0.0"/><path d="M35.5 50.2C35.7 50.2 36.0 50.0 36.0 49.7C36.0 49.5 35.7 49.2 35.5 49.2C35.2 49.2 35.0 49.5 35.0 49.7C35.0 50.0 35.2 50.2 35.5 50.2Z" fill-opacity="0.0"/><path d="M37.0 44.6C37.3 44.6 37.5 44.4 37.5 44.2C37.5 43.9 37.3 43.7 37.0 43.7C36.7 43.7 36.5 43.9 36.5 44.2C36.5 44.4 36.7 44.6 37.0 44.6Z" fill-opacity="0.0"/><path d="M39.8 39.4C40.1 39.4 40.3 39.1 40.3 38.9C40.3 38.6 40.1 38.4 39.8 38.4C39.5 38.4 39.3 38.6 39.3 38.9C39.3 39.1 39.5 39.4 39.8 39.4Z" fill-opacity="0.0"/><path d="M44.0 35.0C44.2 35.0 44.5 34.8 44.5 34.5C44.5 34.2 44.2 34.0 44.0 34.0C43.7 34.0 43.5 34.2 43.5 34.5C43.5 34.8 43.7 35.0 44.0 35.0Z" fill-opacity="0.0"/><path d="M49.2 32.4C49.8 32.4 50.2 32.0 50.2 31.5C50.2 31.0 49.8 30.6 49.2 30.6C48.7 30.6 48.3 31.0 48.3 31.5C48.3 32.0 48.7 32.4 49.2 32.4Z" fill-opacity="0.1"/><path d="M55.1 31.0C55.7 31.0 56.1 30.6 56.1 30.0C56.1 29.4 55.7 29.0 55.1 29.0C54.6 29.0 54.1 29.4 54.1 30.0C54.1 30.6 54.6 31.0 55.1 31.0Z" fill-opacity="0.2"/><path d="M61.1 31.3C61.7 31.3 62.2 30.7 62.2 30.1C62.2 29.5 61.7 29.0 61.1 29.0C60.4 29.0 59.9 29.5 59.9 30.1C59.9 30.7 60.4 31.3 61.1 31.3Z" fill-opacity="0.2"/><path d="M66.9 31.8C67.6 31.8 68.2 31.2 68.2 30.5C68.2 29.7 67.6 29.2 66.9 29.2C66.1 29.2 65.6 29.7 65.6 30.5C65.6 31.2 66.1 31.8 66.9 31.8Z" fill-opacity="0.3"/><path d="M72.5 33.4C73.3 33.4 73.9 32.8 73.9 31.9C73.9 31.1 73.3 30.5 72.5 30.5C71.7 30.5 71.0 31.1 71.0 31.9C71.0 32.8 71.7 33.4 72.5 33.4Z" fill-opacity="0.4"/><path d="M77.7 36.1C78.6 36.1 79.3 35.4 79.3 34.5C79.3 33.6 78.6 32.9 77.7 32.9C76.8 32.9 76.0 33.6 76.0 34.5C76.0 35.4 76.8 36.1 77.7 36.1Z" fill-opacity="0.5"/><path d="M82.3 39.8C83.3 39.8 84.1 39.0 84.1 38.0C84.1 37.0 83.3 36.2 82.3 36.2C81.3 36.2 80.5 37.0 80.5 38.0C80.5 39.0 81.3 39.8 82.3 39.8Z" fill-opacity="0.7"/><path d="M86.1 44.3C87.2 44.3 88.1 43.4 88.1 42.3C88.1 41.3 87.2 40.4 86.1 40.4C85.1 40.4 84.2 41.3 84.2 42.3C84.2 43.4 85.1 44.3 86.1 44.3Z" fill-opacity="0.8"/><path d="M89.0 49.4C90.2 49.4 91.1 48.5 91.1 47.4C91.1 46.2 90.2 45.3 89.0 45.3C87.9 45.3 87.0 46.2 87.0 47.4C87.0 48.5 87.9 49.4 89.0 49.4Z" fill-opacity="0.8"/><path d="M90.9 55.0C92.1 55.0 93.0 54.0 93.0 52.8C93.0 51.7 92.1 50.7 90.9 50.7C89.8 50.7 88.8 51.7 88.8 52.8C88.8 54.0 89.8 55.0 90.9 55.0Z" fill-opacity="0.9"/><path d="M91.7 60.7C92.9 60.7 93.9 59.8 93.9 58.6C93.9 57.4 92.9 56.4 91.7 56.4C90.5 56.4 89.6 57.4 89.6 58.6C89.6 59.8 90.5 60.7 91.7 60.7Z" fill-opacity="0.9"/><path d="M42.3 77.8C42.4 77.8 42.6 77.7 42.6 77.5C42.6 77.4 42.4 77.3 42.3 77.3C42.1 77.3 42.0 77.4 42.0 77.5C42.0 77.7 42.1 77.8 42.3 77.8Z" fill-opacity="0.0"/><path d="M36.2 80.6C36.4 80.6 36.6 80.4 36.6 80.2C36.6 80.0 36.4 79.9 36.2 79.9C36.0 79.9 35.9 80.0 35.9 80.2C35.9 80.4 36.0 80.6 36.2 80.6Z" fill-opacity="0.0"/><path d="M30.0 83.0C30.3 83.0 30.5 82.8 30.5 82.6C30.5 82.3 30.3 82.1 30.0 82.1C29.8 82.1 29.6 82.3 29.6 82.6C29.6 82.8 29.8 83.0 30.0 83.0Z" fill-opacity="0.1"/><path d="M23.8 85.2C24.1 85.2 24.3 84.9 24.3 84.6C24.3 84.4 24.1 84.1 23.8 84.1C23.5 84.1 23.3 84.4 23.3 84.6C23.3 84.9 23.5 85.2 23.8 85.2Z" fill-opacity="0.1"/><path d="M17.8 87.0C18.1 87.0 18.4 86.7 18.4 86.4C18.4 86.1 18.1 85.8 17.8 85.8C17.4 85.8 17.2 86.1 17.2 86.4C17.2 86.7 17.4 87.0 17.8 87.0Z" fill-opacity="0.1"/><path d="M11.9 88.1C12.1 88.1 12.2 88.0 12.2 87.8C12.2 87.6 12.1 87.5 11.9 87.5C11.8 87.5 11.6 87.6 11.6 87.8C11.6 88.0 11.8 88.1 11.9 88.1Z" fill-opacity="0.1"/><path d="M35.7 73.3C35.9 73.3 36.1 73.1 36.1 72.9C36.1 72.7 35.9 72.6 35.7 72.6C35.5 72.6 35.3 72.7 35.3 72.9C35.3 73.1 35.5 73.3 35.7 73.3Z" fill-opacity="0.1"/><path d="M30.8 75.2C31.0 75.2 31.2 75.0 31.2 74.7C31.2 74.5 31.0 74.3 30.8 74.3C30.6 74.3 30.4 74.5 30.4 74.7C30.4 75.0 30.6 75.2 30.8 75.2Z" fill-opacity="0.0"/><path d="M25.8 76.6C26.1 76.6 26.4 76.3 26.4 76.1C26.4 75.8 26.1 75.5 25.8 75.5C25.6 75.5 25.3 75.8 25.3 76.1C25.3 76.3 25.6 76.6 25.8 76.6Z" fill-opacity="0.0"/><path d="M20.7 77.5C21.0 77.5 21.3 77.2 21.3 76.9C21.3 76.5 21.0 76.3 20.7 76.3C20.4 76.3 20.1 76.5 20.1 76.9C20.1 77.2 20.4 77.5 20.7 77.5Z" fill-opacity="0.1"/><path d="M15.2 77.5C15.4 77.5 15.5 77.3 15.5 77.2C15.5 77.0 15.4 76.9 15.2 76.9C15.0 76.9 14.9 77.0 14.9 77.2C14.9 77.3 15.0 77.5 15.2 77.5Z" fill-opacity="0.1"/><path d="M9.2 77.3C9.4 77.3 9.6 77.1 9.6 76.9C9.6 76.7 9.4 76.6 9.2 76.6C9.0 76.6 8.9 76.7 8.9 76.9C8.9 77.1 9.0 77.3 9.2 77.3Z" fill-opacity="0.1"/><path d="M35.1 68.1C35.4 68.1 35.6 67.9 35.6 67.6C35.6 67.4 35.4 67.2 35.1 67.2C34.9 67.2 34.7 67.4 34.7 67.6C34.7 67.9 34.9 68.1 35.1 68.1Z" fill-opacity="0.1"/><path d="M28.5 68.2C28.8 68.2 29.1 67.9 29.1 67.7C29.1 67.4 28.8 67.1 28.5 67.1C28.3 67.1 28.0 67.4 28.0 67.7C28.0 67.9 28.3 68.2 28.5 68.2Z" fill-opacity="0.1"/><path d="M21.6 67.8C21.9 67.8 22.2 67.5 22.2 67.2C22.2 66.9 21.9 66.6 21.6 66.6C21.2 66.6 21.0 66.9 21.0 67.2C21.0 67.5 21.2 67.8 21.6 67.8Z" fill-opacity="0.0"/><path d="M14.4 66.6C14.6 66.6 14.7 66.4 14.7 66.3C14.7 66.1 14.6 66.0 14.4 66.0C14.2 66.0 14.1 66.1 14.1 66.3C14.1 66.4 14.2 66.6 14.4 66.6Z" fill-opacity="0.0"/><path d="M7.3 65.3C7.5 65.3 7.6 65.1 7.6 64.9C7.6 64.7 7.5 64.6 7.3 64.6C7.1 64.6 6.9 64.7 6.9 64.9C6.9 65.1 7.1 65.3 7.3 65.3Z" fill-opacity="0.1"/><path d="M0.4 63.6C0.6 63.6 0.8 63.4 0.8 63.2C0.8 62.9 0.6 62.7 0.4 62.7C0.1 62.7 0 62.9 0 63.2C0 63.4 0.1 63.6 0.4 63.6Z" fill-opacity="0.1"/><path d="M27.4 60.8C27.7 60.8 27.9 60.6 27.9 60.3C27.9 60.0 27.7 59.8 27.4 59.8C27.1 59.8 26.9 60.0 26.9 60.3C26.9 60.6 27.1 60.8 27.4 60.8Z" fill-opacity="0.1"/><path d="M21.5 59.5C21.8 59.5 22.1 59.2 22.1 58.9C22.1 58.6 21.8 58.3 21.5 58.3C21.1 58.3 20.9 58.6 20.9 58.9C20.9 59.2 21.1 59.5 21.5 59.5Z" fill-opacity="0.1"/><path d="M16.1 57.4C16.3 57.4 16.4 57.3 16.4 57.1C16.4 56.9 16.3 56.8 16.1 56.8C15.9 56.8 15.8 56.9 15.8 57.1C15.8 57.3 15.9 57.4 16.1 57.4Z" fill-opacity="0.1"/><path d="M11.2 55.1C11.4 55.1 11.6 55.0 11.6 54.8C11.6 54.6 11.4 54.4 11.2 54.4C11.0 54.4 10.8 54.6 10.8 54.8C10.8 55.0 11.0 55.1 11.2 55.1Z" fill-opacity="0.0"/><path d="M6.7 52.4C6.9 52.4 7.1 52.2 7.1 52.0C7.1 51.7 6.9 51.5 6.7 51.5C6.4 51.5 6.2 51.7 6.2 52.0C6.2 52.2 6.4 52.4 6.7 52.4Z" fill-opacity="0.0"/><path d="M35.2 55.1C35.5 55.1 35.7 54.9 35.7 54.6C35.7 54.3 35.5 54.1 35.2 54.1C34.9 54.1 34.7 54.3 34.7 54.6C34.7 54.9 34.9 55.1 35.2 55.1Z" fill-opacity="0.1"/><path d="M30.6 52.7C31.0 52.7 31.2 52.5 31.2 52.1C31.2 51.8 31.0 51.6 30.6 51.6C30.3 51.6 30.0 51.8 30.0 52.1C30.0 52.5 30.3 52.7 30.6 52.7Z" fill-opacity="0.1"/><path d="M25.9 49.5C26.0 49.5 26.2 49.4 26.2 49.2C26.2 49.1 26.0 49.0 25.9 49.0C25.7 49.0 25.6 49.1 25.6 49.2C25.6 49.4 25.7 49.5 25.9 49.5Z" fill-opacity="0.1"/><path d="M20.9 46.3C21.1 46.3 21.2 46.1 21.2 45.9C21.2 45.7 21.1 45.6 20.9 45.6C20.7 45.6 20.5 45.7 20.5 45.9C20.5 46.1 20.7 46.3 20.9 46.3Z" fill-opacity="0.1"/><path d="M15.6 42.7C15.9 42.7 16.1 42.5 16.1 42.3C16.1 42.0 15.9 41.8 15.6 41.8C15.4 41.8 15.2 42.0 15.2 42.3C15.2 42.5 15.4 42.7 15.6 42.7Z" fill-opacity="0.1"/><path d="M10.2 38.8C10.5 38.8 10.7 38.5 10.7 38.3C10.7 38.0 10.5 37.7 10.2 37.7C9.9 37.7 9.7 38.0 9.7 38.3C9.7 38.5 9.9 38.8 10.2 38.8Z" fill-opacity="0.0"/><path d="M35.4 48.0C35.7 48.0 36.0 47.7 36.0 47.4C36.0 47.1 35.7 46.8 35.4 46.8C35.1 46.8 34.8 47.1 34.8 47.4C34.8 47.7 35.1 48.0 35.4 48.0Z" fill-opacity="0.0"/><path d="M29.6 44.2C29.8 44.2 29.9 44.1 29.9 43.9C29.9 43.8 29.8 43.7 29.6 43.7C29.5 43.7 29.3 43.8 29.3 43.9C29.3 44.1 29.5 44.2 29.6 44.2Z" fill-opacity="0.1"/><path d="M24.2 40.5C24.4 40.5 24.5 40.3 24.5 40.1C24.5 39.9 24.4 39.7 24.2 39.7C24.0 39.7 23.8 39.9 23.8 40.1C23.8 40.3 24.0 40.5 24.2 40.5Z" fill-opacity="0.1"/><path d="M19.3 36.3C19.5 36.3 19.7 36.1 19.7 35.8C19.7 35.6 19.5 35.4 19.3 35.4C19.1 35.4 18.9 35.6 18.9 35.8C18.9 36.1 19.1 36.3 19.3 36.3Z" fill-opacity="0.1"/><path d="M15.1 31.7C15.3 31.7 15.6 31.4 15.6 31.2C15.6 30.9 15.3 30.6 15.1 30.6C14.8 30.6 14.5 30.9 14.5 31.2C14.5 31.4 14.8 31.7 15.1 31.7Z" fill-opacity="0.1"/><path d="M11.5 26.6C11.9 26.6 12.1 26.4 12.1 26.0C12.1 25.7 11.9 25.5 11.5 25.5C11.2 25.5 11.0 25.7 11.0 26.0C11.0 26.4 11.2 26.6 11.5 26.6Z" fill-opacity="0.1"/><path d="M35.3 41.1C35.4 41.1 35.6 41.0 35.6 40.8C35.6 40.7 35.4 40.5 35.3 40.5C35.1 40.5 35.0 40.7 35.0 40.8C35.0 41.0 35.1 41.1 35.3 41.1Z" fill-opacity="0.0"/><path d="M32.3 36.2C32.4 36.2 32.6 36.1 32.6 35.9C32.6 35.7 32.4 35.5 32.3 35.5C32.1 35.5 31.9 35.7 31.9 35.9C31.9 36.1 32.1 36.2 32.3 36.2Z" fill-opacity="0.0"/><path d="M29.7 31.0C29.9 31.0 30.1 30.8 30.1 30.5C30.1 30.3 29.9 30.1 29.7 30.1C29.4 30.1 29.3 30.3 29.3 30.5C29.3 30.8 29.4 31.0 29.7 31.0Z" fill-opacity="0.1"/></g></svg>
